/* XPM */
static char *_f7872d0e0fc4165a5603e0c5eb5c5fdUtvSs3sZrNvOJ69F[] = {
/* columns rows colors chars-per-pixel */
"64 64 136 2 ",
"   c #2A67FE",
".  c #256DFE",
"X  c #2A6DFE",
"o  c #2673FE",
"O  c #2B75FE",
"+  c #2778FF",
"@  c #2D7BFE",
"#  c #3176FE",
"$  c #317DFE",
"%  c #397EFF",
"&  c #397EFE",
"*  c #2F82FA",
"=  c #2E80FD",
"-  c #2E80FE",
";  c #2F81FE",
":  c #2F81FF",
">  c #2E81FE",
",  c #3686F5",
"<  c #3083FB",
"1  c #3483FA",
"2  c #3584FB",
"3  c #3685FB",
"4  c #3787FA",
"5  c #3181FC",
"6  c #3080FD",
"7  c #3381FD",
"8  c #3383FC",
"9  c #3282FD",
"0  c #3181FE",
"q  c #3180FF",
"w  c #3280FE",
"e  c #3380FF",
"r  c #3281FF",
"t  c #3381FF",
"y  c #3082FF",
"u  c #3183FF",
"i  c #3383FE",
"p  c #3282FF",
"a  c #3383FF",
"s  c #3483FC",
"d  c #3682FC",
"f  c #3783FD",
"g  c #3780FF",
"h  c #3681FF",
"j  c #3482FE",
"k  c #3482FF",
"l  c #3583FF",
"z  c #3184FE",
"x  c #3285FF",
"c  c #3484FD",
"v  c #3584FD",
"b  c #3685FC",
"n  c #3586FC",
"m  c #3786FC",
"M  c #3687FC",
"N  c #3786FD",
"B  c #3687FD",
"V  c #3585FE",
"C  c #3484FF",
"Z  c #3685FE",
"A  c #3785FF",
"S  c #3487FF",
"D  c #3786FF",
"F  c #3483FE",
"G  c #3882FB",
"H  c #3A87FB",
"J  c #3980FF",
"K  c #3882FF",
"L  c #3883FF",
"P  c #3985FD",
"I  c #3887FD",
"U  c #3884FE",
"Y  c #3B85FE",
"T  c #3887FE",
"R  c #3886FF",
"E  c #3887FF",
"W  c #3A86FE",
"Q  c #3986FD",
"!  c #3788FD",
"~  c #3588FE",
"^  c #3788FE",
"/  c #3788FE",
"(  c #3888FB",
")  c #3A8CFA",
"_  c #3C8DF9",
"`  c #3989FC",
"'  c #398AFD",
"]  c #3B8BFC",
"[  c #3A8AFD",
"{  c #3988FE",
"}  c #3889FE",
"|  c #3988FF",
" . c #3889FF",
".. c #3B88FE",
"X. c #3A89FF",
"o. c #398AFF",
"O. c #3A8BFE",
"+. c #3B8BFE",
"@. c #3B8AFF",
"#. c #3A8BFF",
"$. c #3D88FD",
"%. c #3C89FD",
"&. c #3D8AFC",
"*. c #3E8BFD",
"=. c #3C88FF",
"-. c #3C89FF",
";. c #3E8BFF",
":. c #3B8CFF",
">. c #3C8CFD",
",. c #3F8DFC",
"<. c #3E8EFD",
"1. c #3D8DFE",
"2. c #3C8CFF",
"3. c #3D8FFF",
"4. c #3F8FFE",
"5. c #3E8EFF",
"6. c #3B8AFE",
"7. c #3E90FE",
"8. c #3E90FF",
"9. c #3F90FD",
"0. c #4183FE",
"q. c #408EFB",
"w. c #408DFF",
"e. c #448DFE",
"r. c #418EFD",
"t. c #4290FD",
"y. c #4192FD",
"u. c #4090FF",
"i. c #4192FE",
"p. c #4593FF",
"a. c #4394FF",
"s. c #4391FD",
"d. c #4895FE",
"f. c #4698FB",
"g. c #4799FD",
"h. c #4A99FE",
/* pixels */
"O O O # # @ O $ $ # # # @ $ $ # O O . X . . . O # O O O B $ $ $ P $ j j B P $ $ $ y y j H H P $ @ @ $ @ $ $ @ # + @ O # O O # X ",
"O O O @ @ $ $ $ # $ O O 1 $ 1 $ # . . . . . . X O @ @ $ j B j y $ j $ 1 H j $ H $ $ $ &.$ ' B $ O @ $ # # $ @ O O @ O O O O # X ",
"O O @ @ O y # $ @ @ @ @ Y j $ P O O . . . . O O + O $ 1 H &.y $ j j H B ' ' &.j y y $ 1 j $ $ $ O @ @ $ $ $ O O O O @ O @ @ # O ",
"O O O O @ # y $ $ @ 1 1 &.' H H O o . .   X O @ @ @ $ 1 B B H H B j B j H :.H H j $ @ $ $ $ @ @ O O @ $ y # # # O O @ @ @ # # $ ",
"O O + @ @ @ $ y x $ j y ( 1.' @ o @ O . O O x @ 1 j y H H i.' ' ' ' H ' 1.1.' j j $ y $ y $ @ @ @ O O @ @ # O O O $ O @ # # # # ",
"+ + O @ @ = y = B $ B B 1.r.' @ @ O o O # O 1 < @ 1 B 1.1.^ ' i.&.H B ' ' ' B y j j $ $ $ @ $ @ O O O O @ @ O O O # $ $ $ $ # # ",
"O O O O @ @ y j y x B B 1.i.H y @ o O O @ @ S x B @ :.1.1.1.) 9.&.' B y B B y B j $ $ y $ $ $ @ O + O O O O O @ # $ # $ j $ @ O ",
"+ O O O O @ ^ x x = y B ^ ' H @ O + o O @ $ S > y 1 i.' q.r.1.' ' B B B j j j B j y j $ y @ $ @ O O + O O # # @ @ $ $ &.$ $ @ # ",
"O @ $ @ O > = = = y y y ' &.B $ O O O O O @ @ = y B ' B 1.i.' ' B y B y x j H j j $ y $ y $ $ @ O @ O O O O O O # $ $ y $ @ O O ",
"@ @ $ y @ @ @ > $ y y x y 1 y @ O o O + @ @ @ @ @ @ ' ' 1.&.' j j y $ y B ' ' ' B y y = @ $ @ @ @ O O O O O O o $ @ $ @ @ @ O O ",
"@ 1 j $ = @ @ @ y $ 1 1 1 @ y O + O O O @ @ @ @ @ = 9.1.1.B H y 1 @ y 1 H ' p.' j y $ y $ @ @ > @ @ o o . $ . . @ $ j 1 O @ # @ ",
"$ $ y y @ @ @ @ $ y # @ @ $ y O O o O O @ O @ @ @ 9.i.' ' H B $ @ @ $ B B g.i.H ( y y $ y = = @ @ o . X X . . . $ $ 3 $ @ O # # ",
"$ 1 j @ @ @ @ @ @ $ @ @ @ $ O O O X O O @ $ @ # y y f.i.&.' j ' x @ y 1 &.:.' r.3 j $ $ $ @ = @ @ o o o . . . . $ &.$ & 1 # O # ",
"@ @ @ O O O + O @ @ @ $ @ y @ O o o . O @ @ @ $ 1 $ :.&.1.1 y $ y = $ y :.&.' Y ' H $ j y @ @ + o o o . . . . . &.e.$ & & O O $ ",
"@ + O O + + + O O O @ @ @ @ O O . X O O @ $ y y $ B y j $ j j y y $ y B ^ ' ' i.H H y $ @ @ O O o o o . . o o # $ $ , q.1 X O # ",
"@ O + O O + O O @ @ @ @ $ # O o X O X @ @ $ j # $ $ $ j j j j y $ 1 B y B ' 1.&.B $ $ $ $ O @ O o o o o o o O O O & $ & $ # @ # ",
"@ = O @ + O @ $ @ $ # @ $ O X X X O O O $ $ $ $ $ $ $ B $ B y j B j y B y H ' H B j j j @ @ @ + + o o o + @ @ @ @ @ @ H y @ # # ",
"@ B $ @ @ @ $ y @ $ y # O O X X X O O # @ $ G $ j j H H j j B B B ' y y $ y j B j y $ $ @ @ = @ + + o + + @ @ @ @ @ $ y $ # @ # ",
"x H $ $ @ 1 @ 1 y $ # O O X X O O X # # # $ $ $ $ ' 1.H &.j ' ^ B 1 B $ y y $ j $ j j y y $ @ @ + + * + @ > > > @ @ @ @ # $ # @ ",
"1 $ $ @ @ @ @ @ $ @ O O O X O O # O # # $ 1 $ $ $ y B H H ' H ' B x j y j j j y j j $ j $ y @ @ + + + * > > > = = @ = $ $ # @ # ",
"x 8.@ @ + @ @ @ @ @ @ O O @ # O $ # $ # $ $ $ $ y $ ( B B ^ ^ B B B x x x y j y y $ y y $ @ @ @ + * = = = > > > $ $ j # # # @ @ ",
"@ @ @ @ @ @ @ O O O @ @ @ @ # @ $ @ @ @ $ # $ G @ $ B j &.:.' ' ^ ^ H ' x B B j j y $ j B $ @ O + + + = = > > > y y $ # $ # # # ",
"= @ @ 1 @ @ = = $ @ @ $ $ j j $ $ @ 1 @ $ @ $ $ $ $ B 1.' j B ' H &.H B H x ^ ^ x $ y j j j x @ = = = = = = = > j $ $ & $ $ $ j ",
"$ = $ y < j $ y $ @ 1 1.G j $ j 1 @ @ @ $ $ $ & ' H ' &.' ' 9.1.' ' H B B :.' B B B $ B j 1 y + + + + = - = = = $ $ $ $ & $ $ $ ",
"y B j j B B B H B H 1.r.i.$ j ' $ $ @ @ $ j B H H &.' ' &.1.B &.H ' B B H B B B H y y y j j x @ @ + + > = @ $ $ $ $ # $ P j j $ ",
"$ H &.Y &.Y j B y H r.r.r.1 &.H 3 $ @ @ y j H H :.:.&.i.i.1.r.r.:.H ' ' H H H ' B j j y y H @ @ + + + @ ^ y y j $ # P $ # j # @ ",
"P P Y i.r.w.B 1 y &.&.h.1.j B p.B @ 1 $ $ B H ' ' 1.' 1.q.q.f.d.i.' &.H ' B j H y B x ^ $ p.@ @ + O = ^ ^ :.$ j H $ # j 1 # j # ",
"# P &.H &.r.< j H ' &.w.1.&.y ' y $ @ B j B H H ' &.' 1.i.p.,.1.9.1.1.&.y B r.B B 9.< ^ 1 B $ @ @ + = i.y ' P G # 1.$ 3 $ G @ $ ",
"$ j H j B B x B H &.H B j ' B j $ ,.$ y j H ' j w.&.1.&.i.&.' ' ,.1.1., j ' H B ' i.1.1 ^ ( = O @ @ = 1 H j i.$., # & & j $ $ O ",
"$ $ j B y B j B ^ Y &.B j H B &.j j j j j 3 j B &.r.&.r.1.1.i.3 B ' 1.3 &.j &.r.) 9.:.x B @ y @ > = y &.$ P $ G &.$ # d.G w.Y O ",
"$ y y y < H B H ' H j &.B H j j H H B j B j j B &.w.r.1.1.^ ( x ^ B ' ' &.&.Y P H @ j y O @ $ $ @ $ B P j Y H G & _ $ $ # & # # ",
"# = j x H ' 1.&.Y &.B &.' j j j H B j ' H B H ' H &.e.i.,.^ ^ ' 3 x ( ( s.s.r.e.&.@ $ O y 1 @ @ B H y r.Y Y $ G G G & # & # # & ",
"$ $ $ j H &.&.Y &.Y &.Y &.j H j j B j ' j H ' ' ,.r.i.i.( ( 3 ' B B B ,.1.p.&.H B @ O y j @ $ j j $ j ' &.$ H $ $ e.P $ # # # # ",
"O $ $ P B H 1.&.&.&.&.&.&.H j j j $ j j B ' H 1.( ,.d.t.9.9.^ ^ x ^ B 1.r.&.&.&.H j O # $ O y $ P H j $ H $ P P P P $ P & # & X ",
"y H P H &.H &.' &.' ' H 1.H y j @ $ $ ' j ' 1.1.,.&.1.a.( ) ^ y 3 i.1.P P $ H j j $ # @ O O $ H Y H P P j &.P $ $ $ Y P $ # # # ",
"# $ j j P H Y ' &.&.H &.H ' 1 @ $ $ H $ y H 1.&.&.1.1.9.9.( $ j 3 ' &.w.G P j P y # @ o + @ B H &.&.Y $ P Y &.B & j H H & & # X ",
"$ $ j y P P Y H H H ' &.9.' @ $ B B B $ y j &.' 1.1.,.' 1.H B w.H w.q.p.&.H H $ $ # @ + O @ # j &.r.1.r.H w.' B 1 B &.$.& q.& X ",
"$ @ $ $ y j P &.H B 1.1.9.3 $ @ $ B i.j j j H ' :.1.1.1.&.H j Y $ e.&.r.B j Y P y # O O O @ # &.d.r.,.Y f.$.&.j B H ,.d.e.& # 0.",
"$ $ $ $ $ j j y y B j ' y @ B @ $ 1 ' j y B B &.r.1.:.' &.r.H $ P 1.r.w.r.Y j H j # O O + o O $ &.r.&.p.q.Y $ H j ' q.$.&.0.$ X ",
"$ $ y $ j $ j j j y y y x = @ $ y 1 j y x = H ' 1.r.' ' &.Y w.P H 1 H H ( P P 1 P & O o o o O 1 w.r.Y i.r.&.H $ H &.G G $ $ & X ",
"& $ $ $ @ j j j B y y = y = y $ j H B j H B B ' ' &.' H H ' H B B 1.' &.H ' ' H $ $ O o o . o o j j $.1 H $ # P P j P $ # $ # X ",
"y # $ $ y $ j j x > y = = = y y $ j H j j y j B B H ' H H B H B H j ' 1.' B j y y @ O o . . o + @ H j y @ $ j $ j $ j $ j # O O ",
"# $ @ # # $ $ j = = > > @ = y $ j y j j y $ $ j H B B H B H B B H ' ' 1.B j j j y = o . . o O @ O $ @ y @ 1 $ $ $ j $ $ $ $ $ # ",
"@ # # @ @ @ $ @ = > @ @ @ @ @ $ $ $ # y y $ $ y y j j j y j H H B &.B j j H j j j $ @ o o . O @ @ O O @ @ # $ $ $ $ $ $ $ # w.& ",
"@ # # @ @ O @ @ @ @ > > @ @ O @ @ # $ $ $ $ $ $ $ $ j $ y j H H ' B H j B $ j P j # O . . o o O O @ @ @ $ @ $ $ P $ $ j $ & $ & ",
"O @ @ @ # @ O O @ @ @ @ @ @ O O @ @ $ # $ j y y y $ $ j $ j j j B j j B Y w.&.$ H j O O O o o O O O + O @ $ $ $ $ $ & $ $ $ # & ",
"# @ # $ j @ O @ + @ > @ + + + @ O @ O @ $ $ $ j y j j j &.x ' B j j H j B j $ j j H # O . . + + @ O @ @ $ $ # # $ $ $ # $ $ % 0.",
"$ $ $ j &.$ @ = @ @ @ O O + O O O @ @ @ y $ j j B H H H &.&.H B B j j j B $ y $ $ # = + o o o + O O @ @ O O O O # $ @ # # # & $ ",
"& $ Y q.H H $ @ @ @ @ O + + O @ O @ @ @ @ $ @ H ,.&.d.1.' &.B j j B B y y @ $ $ @ 1 @ o o + o + + @ @ @ O O . O O O # O @ @ # # ",
"$ j j H :.( B B y @ @ O O @ @ @ @ @ O @ @ $ $ H i.q.r.w.' B H B H j $ $ j $ B $ @ @ O o o o + + + + + @ . O X O O O O O O # @ # ",
"$ $ $ Y :.,.e.B B y @ @ @ @ @ @ @ $ @ # @ $ y 3 ' 1.&.' ' H j B B H B H H B $ @ @ @ O o o + + + + + @ O O O O O O O O O # # $ $ ",
"$ $ j H :.:.n B B # $ @ @ @ $ y $ $ y $ y $ $ H 1.' &.1.j H H B ' 1.1.H 1.1.y = @ + O o o O + + + + + + O O X O O O O X # $ & $ ",
"$ # $ $ 1 ' B j @ y $ $ @ @ @ $ $ y $ y $ $ $ H 1.' &.' B B B H ' H H ' 3 3 y = @ @ + + + + + O + + + + O O @ $ @ # O X O $ $ # ",
"# # @ y B y y j y $ $ $ $ @ $ $ $ j y $ y y j H ' ' B ' B H j H H ' B B 1 $ y $ = @ @ + + o + @ + + + + + = $ # @ O X X O P & # ",
"# @ @ @ $ y y y $ y j & $ $ @ $ $ y j y j j j B H H B B B B H H H B j P y y = @ = = @ O + + + O + + > + y @ @ @ @ O O X O $ $ $ ",
"# @ # $ B y 1 $ 1 $ $ j $ $ @ @ $ $ j j $ j $ 1 y P B j j H B H H H H j < y @ 1 $ @ @ o o + + + O @ x > O @ @ y @ @ O O # $ # # ",
"# O @ 1 ,.y ) = $ $ $ @ $ $ @ $ $ $ y j $ y j y y y P H j B ' ' ^ ' B j y $ @ @ = = @ + o O + o O B @ B * @ @ @ # y O X O O # O ",
"# $ # j $ x > = @ @ @ y # @ @ # $ y $ j $ $ $ $ H H P H H B H ' H ' ' H j $ @ = @ > + + o o + + = y ' H @ @ O @ j @ O X O X O O ",
"# # $ # $ 1 = @ @ = @ # @ @ @ @ @ $ j $ j $ j P P H &.&.&.H H H ' ' j j @ > O @ @ + @ + o o O O = B ' &.< 1 # O $ $ O X X O . . ",
"# # # @ @ O @ > @ @ $ $ # $ @ # $ $ $ $ j j y B H H H &.P j H H H j j = @ + O @ @ O @ O + o O y y ' ( ( @ @ O $ _ # O X X X X X ",
"# @ # @ @ O @ @ > @ $ $ y $ @ @ $ @ y j $ y j j j H &.H H P j j B x = @ + + O O @ O O O @ O O @ H B B H # @ O $ # # # X X X     ",
"# @ # O O O O @ @ $ B y y # @ @ $ $ j j y $ y y j B j B H j y j y y = @ + + + O # @ @ @ O @ + $ $ $ $ $ # O O O # X X X X . .   ",
"O O O O O O O @ $ y y y = = @ @ $ B B y $ y $ j j j j H j j j y $ j $ @ + O O @ $ @ @ O @ O @ $ y $ @ O X X X X X X # X   X     ",
"X # X O O + O O $ @ $ y @ @ @ O y y y $ $ j y y y j j y j j j j $ $ @ @ O O @ $ $ $ @ + O O @ @ @ @ O O O O # X X X X X X       "
};
