/* XPM */
static char *da1ea6f883504e7eed848d7af6f09c97qe5yfX7gfM4jTXwd[] = {
/* columns rows colors chars-per-pixel */
"64 64 231 2 ",
"   c #263E5A",
".  c #1B3968",
"X  c #1A3D71",
"o  c #193D79",
"O  c #1C4276",
"+  c #1D447D",
"@  c #20457A",
"#  c #1C4584",
"$  c #1D4A8C",
"%  c #19458D",
"&  c #1D4B95",
"*  c #1C4D9E",
"=  c #204984",
"-  c #214C8B",
";  c #254B82",
":  c #324E80",
">  c #29578D",
",  c #214E92",
"<  c #235195",
"1  c #23549C",
"2  c #285798",
"3  c #365784",
"4  c #026094",
"5  c #136998",
"6  c #1A648B",
"7  c #336B93",
"8  c #366D94",
"9  c #1F52A7",
"0  c #1E57B6",
"q  c #1B4EA7",
"w  c #2355A2",
"e  c #2659A5",
"r  c #2356AA",
"t  c #245AAC",
"y  c #2A5DA3",
"u  c #255DB3",
"i  c #295FB3",
"p  c #255CB6",
"a  c #0273AD",
"s  c #0B74AC",
"d  c #1977AB",
"f  c #0277B1",
"g  c #0179B6",
"h  c #027DBC",
"j  c #0D7DB6",
"k  c #147EB6",
"l  c #146FA4",
"z  c #2D63A4",
"x  c #2C64AE",
"c  c #3565A6",
"v  c #3E7DA9",
"b  c #337EA8",
"n  c #2B62B5",
"m  c #2561BD",
"M  c #2B64BB",
"N  c #2F69BA",
"B  c #326CB8",
"V  c #3A79BA",
"C  c #277DB0",
"Z  c #445E81",
"A  c #516F8E",
"S  c #456FA1",
"D  c #427DAA",
"F  c #417BA3",
"G  c #4A77B2",
"H  c #225EC5",
"J  c #037EC1",
"K  c #2764C4",
"L  c #2965C3",
"P  c #2D6AC5",
"I  c #2C6CCC",
"U  c #2764CC",
"Y  c #316DC4",
"T  c #336ECE",
"R  c #2B70CF",
"E  c #3571C9",
"W  c #2867D0",
"Q  c #2C6CD2",
"!  c #2A6CDC",
"~  c #2267D8",
"^  c #306FD0",
"/  c #2D72DC",
"(  c #2F70D3",
")  c #3274D5",
"_  c #3274DB",
"`  c #3579DD",
"'  c #387AD7",
"]  c #2A6EE4",
"[  c #266FEC",
"{  c #276DE8",
"}  c #2C73E4",
"|  c #2772EF",
" . c #2D75EC",
".. c #2E79EC",
"X. c #2C76E3",
"o. c #337AE4",
"O. c #3176EB",
"+. c #337CEC",
"@. c #3478E3",
"#. c #2A67FE",
"$. c #256DFE",
"%. c #2A6DFE",
"&. c #256DF5",
"*. c #2A75F5",
"=. c #2E7BF5",
"-. c #2673FE",
";. c #2B75FE",
":. c #2778FF",
">. c #2D7BFE",
",. c #2573F4",
"<. c #327BF3",
"1. c #3176FE",
"2. c #317DFE",
"3. c #397EFE",
"4. c #3077F5",
"5. c #487ED3",
"6. c #4779C2",
"7. c #0181BF",
"8. c #1983BB",
"9. c #3A81AF",
"0. c #3986B6",
"q. c #2A84B9",
"w. c #4B81AA",
"e. c #5786AA",
"r. c #4785B2",
"t. c #598DB4",
"y. c #4992BB",
"u. c #668BAC",
"i. c #7093B3",
"p. c #608AB2",
"a. c #0284C4",
"s. c #058ACA",
"d. c #0B8CCD",
"f. c #0D87C3",
"g. c #148DCC",
"h. c #128CC6",
"j. c #1D91CF",
"k. c #0F8FD0",
"l. c #148ED1",
"z. c #1391D2",
"x. c #1A92D2",
"c. c #2C96D4",
"v. c #2594D4",
"b. c #3799D7",
"n. c #3297D9",
"m. c #3E9CD9",
"M. c #379AD8",
"N. c #3D97C9",
"B. c #3681EC",
"V. c #3A83ED",
"C. c #3D82E7",
"Z. c #2F81FE",
"A. c #2F81FE",
"S. c #2E80F0",
"D. c #3582F4",
"F. c #3A84F3",
"G. c #3C88F6",
"H. c #3282FD",
"J. c #3181FE",
"K. c #3281FF",
"L. c #3383FE",
"P. c #3181FD",
"I. c #3482FF",
"U. c #3682FE",
"Y. c #3484FD",
"T. c #3687FD",
"R. c #3585FE",
"E. c #3685FE",
"W. c #3483FE",
"Q. c #3886FE",
"!. c #3986FD",
"~. c #3788FE",
"^. c #3689FE",
"/. c #3889FE",
"(. c #3A89FF",
"). c #3B8BFE",
"_. c #398AFE",
"`. c #3D89FE",
"'. c #3D8DFE",
"]. c #3B8AFE",
"[. c #3E90FD",
"{. c #5484C7",
"}. c #5C8ACC",
"|. c #4B96C7",
" X c #439DD5",
".X c #419DDA",
"XX c #4D98DC",
"oX c #5793D1",
"OX c #6499C6",
"+X c #6D9AD1",
"@X c #4AA1DF",
"#X c #46A0DF",
"$X c #58A5DC",
"%X c #7BA6CB",
"&X c #63A8DF",
"*X c #418EFD",
"=X c #418AF7",
"-X c #4191FE",
";X c #4492FD",
":X c #4799FC",
">X c #6196E1",
",X c #4DA6E1",
"<X c #53A6E4",
"1X c #57A8E3",
"2X c #5CABE3",
"3X c #65AFE7",
"4X c #67B0E5",
"5X c #66B1E9",
"6X c #6BB2EA",
"7X c #6FB1E5",
"8X c #7CB6E5",
"9X c #73B5EB",
"0X c #76B8EC",
"qX c #7BB9EC",
"wX c #79B6E8",
"eX c #73B1EA",
"rX c #8AAFD3",
"tX c #8BB5DA",
"yX c #83A5C8",
"uX c #85BDEC",
"iX c #86BBEA",
"pX c #85BFF0",
"aX c #94BFE9",
"sX c #8CC4EF",
"dX c #87C0EB",
"fX c #94C5EE",
"gX c #9CC8ED",
"hX c #9DC9F1",
"jX c #97C8F0",
"kX c #A1C9ED",
"lX c #A3CCF3",
/* pixels */
";.;.;.1.2.>.;.2.2.1.2.1.>.2.1.2.;.;.-.$.$.%.$.;.;.;.>.;.T.2.>.2.U.2.W.W.T.U.2.W.2.J.J.W.Q.Q.U.2.>.>.1.2.2.2.2.>.>.;.;.;.;.;.1.%.",
";.;.;.>.;.2.2.2.;.2.1.;.<.W.2.2.1.$.%.$.#.$.%.-.;.;.1.2.T.Q.W.W.2.W.2.H.Q.U.2.!.2.2.J.(.J.`.Q.2.>.>.1.>.;.2.;.1.;.>.;.;.;.;.;.1.",
";.;.>.>.;.2.1.J.2.;.2.>.!.U.W.U.;.-.$.$.$.$.%.;.>.;.P.W.Q.`.J.J.W.W.Q.W.(.`.*XW.J.J.J.J.2.2.J.>.;.>.>.W.2.2.;.;.;.;.>.;.>.;.1.;.",
";.;.;.;.>.2.J.>.2.>.P.P.`.(.T.(.;.;.$.$.$.$.;.2.>.>.2.P.T.^.Q.T.T.W.T.T.G.'.Q.W.W.2.2.>.2.2.2.>.;.>.>.1.2.2.1.;.;.;.>.>.1.1.2.1.",
";.;.:.>.>.>.2.L.L.A.L.L.G.'.(.>.:.>.:.%.-.;.J.A.P.P.J.Q.T.-X(.^.(.(.^.(.'.[.(.L.W.2.2.2.J.>.>.>.>.;.;.>.>.2.>.;.;.1.;.>.1.1.2.1.",
"-.:.;.>.;.A.J.A.T.H.L._.'.*X(.>.;.;.-.%.1.>.A.H.2.H.T.'.'.(.).-X`.(.^.).(.^.L.L.W.2.2.J.J.2.>.>.;.;.;.;.;.>.;.;.>.1.2.P.2.2.1.;.",
";.;.;.;.>.>.A.L.A.L.H.L.[.-XT.J.>.-.;.:.>.2.^.L.T.P.G.[.'.'._.[.).^.T.H.L.T.L.L.W.W.J.2.2.2.2.>.-.-.;.>.;.;.1.1.1.>.1.2.T.1.1.>.",
":.;.;.>.;.A.^.L.R.A.L.T.T.(.(.>.>.;.-.;.;.2.R.A.P.A.[.(.*X[.[.G.(.^.T.L.T.T.L.^.W.J.J.2.J.2.2.>.;.;.:.;.;.1.>.;.1.2.2.(.2.2.>.1.",
";.>.>.>.;.>.A.A.A.A.J.J.(.(.T.>.;.;.-.;.;.A.:.A.J.T.(.^.'.-X).).^.L.T.J.L.L.(.T.L.J.>.J.J.2.2.>.>.;.;.;.;.;.;.:.>.2.2.J.>.1.;.>.",
">.>.2.J.>.>.>.Z.A.L.J.T.J.T.J.>.;.;.;.;.>.>.>.Z.>.A.^.(.[.).(.W.L.J.A.J.^.(.G.^.T.J.J.J.>.2.>.>.>.;.;.;.;.;.;.;.2.>.2.2.>.>.;.;.",
"A.2.T.2.A.>.>.Z.J.J.2.P.>.J.J.>.;.-.-.;.>.;.>.>.;.A.[.'._.T.(.J.A.2.J.P.(.(.;X(.T.J.J.>.J.>.>.Z.>.>.;.-.%.1.$.$.2.1.L.P.>.;.1.>.",
"2.W.J.J.>.>.>.>.A.J.2.>.A.A.>.;.-.;.;.;.;.>.>.>.A.[.[.G.'.T.^.>.=.A.>.T.T.:X-X^.(.J.J.J.A.A.A.>.;.;.$.$.$.&.$.$.2.2.T.J.1.;.>.>.",
">.2.W.2.>.;.>.:.>.2.>.2.>.>.;.:.;.;.$.;.>.>.>.2.P.P.:X;X`.(.W.(.L.A.J.J.'.'.(.*XT.P.J.2.>.J.>.>.>.-.-.$.$.$.$.$.2.!.2.U.<.1.;.1.",
">.>.>.;.>.;.:.>.>.>.>.>.2.2.>.>.$.;.;.;.;.>.2.>.A.2.).).'.H.J.2.J.>.J.J.(.`.(.(.Q.T.2.2.J.>.Z.:.:.-.-.$.$.$.$.$.=X;X2.3.U.;.;.2.",
";.:.;.;.:.:.;.-.;.;.>.>.>.>.;.;.$.$.%.>.>.2.J.W.2.T.P.W.W.J.J.L.J.J.J.T.^.^.).-XQ.Q.2.2.>.>.;.;.-.-.-.-.$.-.;.:.1.2.F.`.3.;.1.;.",
">.>.;.:.;.:.;.;.>.>.>.2.1.1.;.-.%.;.;.;.2.2.2.2.2.2.J.J.2.W.T.J.J.J.T.J.T.).'.`.T.W.W.2.2.;.;.;.:.-.-.$.,.-.;.;.>.3.3.H.2.;.1.1.",
">.A.;.>.;.>.>.>.>.>.2.>.1.;.%.-.%.;.;.1.1.2.2.W.2.2.2.U.W.W.J.L.(.J.T.L.J.T.(.T.Q.W.W.2.>.>.>.:.:.-.-.-.:.;.>.>.;.>.>.^.J.1.2.1.",
">.T.>.1.A.>.2.A.2.2.2.2.-.;.%.%.;.%.;.;.>.2.U.2.W.W.Q.T.T.U.T.T.^.^.J.J.2.W.T.T.2.W.2.P.>.>.A.>.:.:.:.:.:.>.A.>.>.>.2.J.2.1.1.>.",
"L.Q.2.>.>.2.>.P.2.>.1.1.;.%.%.;.*.%.;.1.1.2.2.2.2.`.'.Q.Q.T.(.^.T.A.T.J.J.J.J.J.W.W.H.J.P.2.>.>.Z.:.:.:.Z.Z.Z.Z.Z.>.>.2.2.2.1.>.",
"T.2.J.>.=.>.>.>.>.>.;.;.;.%.1.*.1.1.1.1.1.H.3.2.2.W.T.T.Q.`.T.).^.L.T.J.J.J.J.A.2.2.2.P.>.P.>.>.:.:.:.Z.Z.Z.Z.A.>.Z.>.>.1.1.1.>.",
"T.).>.>.;.=.:.*.*.*.;.;.;.;.;.;.>.2.1.2.1.2.2.W.P.P.T.T.G.T.T.T.^.^.H.H.J.P.D.D.<.>.=.2.>.>.>.>.:.:.:.A.A.A.A.A.2.2.3.2.1.1.>.1.",
">.Z.>.>.>.*.*.| [ [ *.*.=.<.1.>.2.2.>.>.2.2.2.2.2.J.T.P.^._._.T.T.^.D.T.D.D.=.....=.<.<.T.=.>.:.:.Z.:.Z.A.A.A.A.J.J.1.2.>.2.1.1.",
">.>.>.S.=.*.X.{ ] ] ]  . .2.H.>.2.>.J.>.>.>.2.2.J.>.H.).G.A.D.T.D.B.B.B.+.X.X./ / ! } X.=.<.S.:.:.>.Z.Z.Z.Z.Z.A.T.>.1.2.2.2.J.W.",
">.A.2.P.=...] / W W I ` @.O.=.D.2.>.>.<.>.2.2.<.D.F.D.B.D.D.V.B.+.+.+./ ) ) R U P P W / / ....| ,.=.:.=.Z.Z.:.A.2.2.2.2.3.2.2.2.",
"J.T.W.W.D.O./ ^ K M P E ' /  .D.=.=.=.=.2.<.<.B.B.B.B.o.o.` / ` ) ^ I K L M n t t 0 n m I Q / ] { | | ,.>.=.<.1.2.1.=.2.U.W.3.2.",
"2.`.!.G.F.+./ P m > x n Y R o.+.O. . .[  .o.@.@.@.` ) ) E E Y N N n x x t 1 1 , $ 7 $ 9 0 m H U ~ ~ { X.X.O.=.4.<.>.U.2.1.W.2.1.",
"!.U.!.*XG.C./ K c l.s.s.z m I ' ! ! ! ! Q Q I I Y N N n x y c y 1 < < , $ # # O O 5 5 7 & z 9 0 0 H K R ) ` @.O.<.4.2.3.J.1.H.1.",
"2.U.=XU.(.V./ I p 8 d.d.s.x p L L K H L m m n t x 9 1 2 < > - = = + + O o X X . .   6 7 8 # % & * q 0 N m I W _ ] V.4.3.2.U.>.>.",
"3.U.T.H.U.S.X.Q n 1 N.s.s.d.1 t p n t 9 r w 1 & , $ # + O O X X Z A i.t.w.w.w.w.v D D w.w.e.i.A @ % & & r u N E _ O.O.3.U.2.2.1.",
"2.2.W.T.S.D.o.I n 1 3 s.s.s.f.e r r w 1 & & # # + O X A i.t.r.9.v C d l s f f f f f f f s s l 9.r.v A # , w p H T ] 4.;XU.'.!.;.",
"2.J.J.J.T.F.o.T n 1 $ s.s.d.d.h.r e w ; S 8 u.t.r.9.q.8.h h 7.7.J h g a a f a.a.s.a.a.7.7.g g g a a a a b F e.G U @.4.4.1.3.2.1.",
">.2.W.J.H.<.o.) p w $ j.s.d.f.C k j h h 7.h h 7.7.a.a.f.h.h.h.g.d.g.f.l 5 4 s 7.d.s.g.d.d.d.s.s.7.7.a.s.a.g J a.f.k O.4.1.1.1.3.",
"2.2.2.W.2.F.` T n w < > k.x.,X,X1X1X2X$X<X,X#Xm.M.c.n.M.m..X.X.X X.X|.0.|.|.|.j.j n.n.n.n.x.j.k.d.d.a.J s.g.j.XX$XfXXX<.1.1.1.2.",
">.2.2.3.F.@.` P x e 1 c.v.x.z.n.6.{.>XtXqX7X4X4X2X1X1X,X,X,X1X,X<X4XqX0X6X0XuXaXaXlXgXkXiX3X<X.Xm.m.m.n. X.X8X8X7X7X2.F.1.1.1.1.",
"2.Q.!.G.F.o._ P p t t z.l.x.v.'  . . .+.X.` }.%XqXqXwX9X6X6X6X6XeX6X6X5X5XpXlXhXfXuXfXjXiXwX7X4X3X2X2X1X2XwX%X>X<.<.U.U.2.1.1.1.",
"2.2.U.2.<.o.( Y N n V x.z.l.oX=.=.>.T.<.=.+.V.o.C.o.}.rXuXqXqXqX9X9XeX5X5X6X9X6X6X6X7X6X3X3X3X4X4X9XwXiX5.<.G.H.U.U.U.!.U.3.1.#.",
"2.2.W.=.+.O.` I P P j.g.d. X=.<.J.T.J.2.P.<.G.F.D.B.V.B.o.@.}.rXiXiXiXqXqXqXqX0X9X9X9X9XwXiXiXgX+X+XF.=XF.=XQ.W.T.W.*X=X3.=X3.%.",
"1.2.J.1.=...@._ ) B d.k.M.D.2.>.J.^.-XH.J.J.T.T.).G.G.G.F.+.<.+.} =XB eXyXkXhXjXjXjXjXjXgX5. .<.=X=XG.`.:XQ.`.Q.T.Q.*X;X*X3.1.=X",
"1.2.J.1.<.<. .X.V d.l.$X=.=.T.>.P.H.G.T.J.T.^.).[.)._.G.G.`.F.<.<.=XF.V.C.+.X.@.T qXsXtX&.,.:.<.=X'.`.*X*X!.2.U.W.Q.*X!.!.*X3.#.",
"H.P.2.P.<.>.<.+.OXOX` P.A.A.>.>.J.W.J.2.T.P.T.(.'.).(.).`.Q.`.U.T.D.D.T.F.F.<.<.o.E *.&.$.-.;.P.`.*XG.*X*X`.!.U.(.`.U.3.3.2.2.%.",
"2.2.2.2.>.D.<.P.P.=.A.Z.Z.A.J.2.W.T.T.W.Q.T.T.(.(.).).(.Q.(.(.Q.U.(.^.(.T.T.T.U.<.<.-.-.-.$.-.;.W.U.T.T.T.1.2.U.U.U.U.2.2.2.1.#.",
"2.2.2.1.2.2.P.W.J.A.A.A.Z.Z.J.J.2.W.Q.J.W.J.L.^.Q.Q.(.T.(.T.Q.T.(.T.G.(.(.T.H.H.J.>.;.-.$.$.-.;.>.Q.W.2.2.2.W.2.W.W.W.2.2.2.;.1.",
"2.1.1.>.2.>.2.J.A.A.A.Z.>.>.A.J.W.W.W.T.J.2.J.J.T.T.T.Q.T.T.Q.T.T.(.).'.T.W.W.W.J.A.-.$.$.-.:.>.;.2.>.2.>.J.2.2.2.2.2.2.2.1.2.1.",
"1.>.>.2.>.>.2.>.A.A.>.A.>.>.>.A.2.2.1.2.J.2.J.2.W.W.W.W.J.T.Q.Q.T.(.T.T.W.Q.W.W.W.>.>.-.-.$.-.1.;.>.;.>.2.2.2.2.2.2.J.2.2.1.*X3.",
"1.>.1.>.>.;.>.>.>.Z.>.>.Z.>.>.>.>.1.2.2.2.1.J.2.2.2.J.2.J.W.Q.(.(.T.Q.T.U.W.2.!.W.1.;.$.$.-.:.:.;.:.;.>.2.>.2.2.2.3.W.W.2.3.2.3.",
";.>.>.1.1.>.;.;.>.>.:.Z.;.;.:.;.;.>.1.2.J.W.J.J.W.2.2.W.2.W.W.W.T.T.W.Q.!.*X`.2.U.W.;.;.;.-.-.;.;.>.>.>.>.2.2.2.3.2.2.2.2.2.2.3.",
"1.>.1.2.W.>.;.>.:.>.>.>.:.:.;.>.>.>.;.>.2.2.J.W.W.W.W.W.`.L.(.T.W.T.T.2.U.W.J.W.W.U.2.;.$.$.-.:.>.;.;.>.>.2.;.1.2.2.2.1.2.2.3.3.",
"1.W.2.W.`.A.>.>.>.>.>.:.>.;.:.:.;.>.>.>.2.2.J.W.Q.Q.!.T.'.(.Q.Q.W.W.W.W.Q.2.J.J.2.2.2.;.-.-.-.-.>.;.>.>.>.;.1.;.2.1.>.1.1.1.3.3.",
"W.2.U.*XQ.Q.J.>.>.>.>.;.:.>.:.;.;.>.>.>.>.2.>.T.*X`.:X`.(.'.T.W.W.W.T.J.J.>.2.J.>.P.A.-.-.-.:.:.:.>.>.>.-.-.%.;.;.1.1.;.1.>.1.1.",
"2.W.U.!.).G.T.T.J.2.>.;.;.>.>.>.>.>.>.>.>.2.2.T.;X*X*X=X(.T.T.T.Q.T.2.2.W.2.T.2.2.>.-.-.-.-.:.:.:.:.;.:.;.;.%.;.;.:.;.;.>.>.>.1.",
"U.2.2.`.'.'.-X^.T.J.>.>.>.>.>.>.2.>.>.>.>.>.W.T.(.'.'.(.(.Q.W.Q.T.Q.T.(.Q.T.2.>.>.;.;.:.-.-.:.:.:.:.>.;.-.;.;.;.;.;.;.;.1.1.2.2.",
"2.2.W.Q.(.'.H.T.L.>.2.>.>.>.2.J.J.1.J.2.2.2.2.(.'.).(.'.T.Q.Q.T.(.'.'.Q.'.'.A.A.S.;.;.-.:.;.:.:.:.:.:.-.;.;.%.;.;.;.%.%.1.2.3.2.",
"2.1.2.>.T.T.H.T.>.J.2.2.>.>.>.2.2.J.J.2.J.2.2.(.'.(.'.(.T.T.T.Q.(.(.T.(.T.T.P.A.>.;.>.:.:.;.:.:.:.:.:.:.>.;.2.2.1.1.;.%.;.2.2.1.",
"1.1.>.2.L.L.L.J.J.2.2.2.>.2.2.2.2.J.J.J.W.J.W.Q.).^.^.(.T.T.T.Q.(.(.T.T.P.A.P.>.A.>.>.:.;.:.:.:.:.:.:.:.-.A.>.1.>.;.%.%.;.3.3.2.",
">.1.>.J.J.J.J.J.P.2.2.U.J.2.>.>.2.J.W.2.W.2.W.W.^.Q.T.W.T.T.T.Q.(.Q.T.W.J.J.J.>.>.A.>.:.-.;.:.:.:.:.:.:.J.>.>.>.>.>.;.%.>.2.2.2.",
"1.;.1.2.T.L.H.J.2.J.W.W.1.2.>.2.2.2.W.W.J.W.J.W.J.Q.T.T.T.Q.Q.Q.(.Q.Q.W.H.L.>.J.A.A.;.-.:.:.:.:.>.Z.R.A.>.>.>.A.>.>.;.;.;.1.1.1.",
"1.;.2.H.'.J.(.A.2.P.2.2.2.2.>.1.2.J.W.J.2.W.W.2.W.W.Q.Q.T.T.(.(.(.(.T.W.J.J.>.>.A.A.;.-.-.;.-.:.:.T.>.L.L.>.>.>.1.J.;.-.4.;.;.;.",
"1.2.1.W.2.P.A.A.2.>.>.2.>.1.>.2.>.2.2.W.2.2.W.2.T.Q.Q.Q.T.T.(.(.^.(.(.(.J.2.>.A.Z.>.:.:.-.-.-.:.A.L.(.^.A.>.;.>.J.>.%.;.%.;.%.;.",
"1.1.2.1.>.H.A.A.>.>.>.>.1.>.>.>.2.2.2.J.W.2.W.U.U.Q.*X`.`.U.Q.(.(.Q.T.J.A.>.;.>.>.:.>.:.-.-.:.>.A.T.(.G.J.J.;.>.2.2.;.%.%.;.%.;.",
"1.1.1.>.>.>.>.>.>.>.J.2.2.>.>.1.>.2.W.2.J.W.J.T.Q.`.!.`.U.Q.Q.Q.Q.T.W.>.>.:.;.>.>.>.;.;.;.:.;.J.J.(.(.G.>.>.>.1.`.1.;.%.%.%.$.%.",
"1.;.1.1.>.;.>.>.Z.>.2.J.>.>.2.>.2.2.J.W.2.2.J.T.Q.Q.`.Q.Q.U.Q.W.T.L.A.>.:.:.;.;.>.;.;.;.;.1.:.>.(.T.T.(.1.1.>.1.1.#.;.%.%.%.$.#.",
"1.>.;.>.;.;.;.Z.>.2.T.A.J.2.>.>.2.J.J.W.J.J.J.J.W.T.W.T.Q.W.2.T.J.J.A.>.:.-.:.>.2.>.>.>.>.;.>.J.>.2.2.2.;.;.;.;.%.1.1.%.%.#.#.#.",
"%.;.1.;.;.;.;.>.>.J.J.J.A.Z.>.>.>.T.T.J.J.J.J.J.W.W.W.Q.W.W.W.J.J.J.J.>.-.;.;.>.1.>.>.;.;.;.>.>.>.2.>.;.;.%.;.%.1.%.1.#.%.#.#.#.",
"1.;.;.;.;.:.;.;.>.2.2.A.>.>.>.;.J.J.J.A.2.J.2.J.J.W.W.W.W.2.W.W.J.2.>.>.;.;.>.2.J.>.>.>.:.;.>.>.2.>.>.;.;.%.;.%.%.#.%.%.%.#.#.%."
};
