/* XPM */
static char *_2e31ec4dc5f4556d335d059cdb6420c2reK7Qz7FXInz5YJ[] = {
/* columns rows colors chars-per-pixel */
"64 64 246 2 ",
"   c #6E492D",
".  c #895731",
"X  c #AF5C32",
"o  c #81603F",
"O  c #A96837",
"+  c #A3713C",
"@  c #B9763B",
"#  c #B76F2D",
"$  c #C87D39",
"%  c #C26D34",
"&  c #946948",
"*  c #AB7646",
"=  c #B77749",
"-  c #A7704C",
";  c #C47A53",
":  c #D0863B",
">  c #E4973D",
",  c #E9A13F",
"<  c #9D815C",
"1  c #BC8549",
"2  c #BB8B5B",
"3  c #B78658",
"4  c #BD945F",
"5  c #A7845A",
"6  c #BB966A",
"7  c #BA8C61",
"8  c #C78A4B",
"9  c #D48747",
"0  c #D9974A",
"q  c #C78B56",
"w  c #D18A55",
"e  c #CC9354",
"r  c #C6935C",
"t  c #CB945C",
"y  c #CC9A5C",
"u  c #C39457",
"i  c #D3955A",
"p  c #D49C5B",
"a  c #DB9D5C",
"s  c #D89755",
"d  c #E39A49",
"f  c #E49B56",
"g  c #E3894D",
"h  c #DCA35B",
"j  c #DCA459",
"k  c #DFA14E",
"l  c #E9A249",
"z  c #F3AA48",
"x  c #EAA952",
"c  c #E4A35D",
"v  c #E4AA5D",
"b  c #E7A658",
"n  c #F2AB5A",
"m  c #FABB5F",
"M  c #CC9563",
"N  c #CC9B64",
"B  c #CB9D6C",
"V  c #C59668",
"C  c #D49D64",
"Z  c #DC9E63",
"A  c #D29D6B",
"S  c #D89A6A",
"D  c #C49E73",
"F  c #C99D76",
"G  c #D69B74",
"H  c #C78F60",
"J  c #E59E64",
"K  c #CDA26D",
"L  c #D5A364",
"P  c #DCA263",
"I  c #D4A36C",
"U  c #DAA56C",
"Y  c #DDAA6C",
"T  c #D9A96B",
"R  c #CCA374",
"E  c #CBA57B",
"W  c #CDA97C",
"Q  c #C8A476",
"!  c #D3A473",
"~  c #DBA674",
"^  c #D4AA74",
"/  c #DBAC74",
"(  c #D3A57B",
")  c #DAA57B",
"_  c #D4AC7B",
"`  c #DCAD7B",
"'  c #DDB175",
"]  c #D5B07E",
"[  c #DCB27D",
"{  c #DFB87D",
"}  c #E3A563",
"|  c #E4AB63",
" . c #ECAC63",
".. c #E2A56B",
"X. c #E3AC6C",
"o. c #EBAC6C",
"O. c #EAA565",
"+. c #F2AB65",
"@. c #F2AE6C",
"#. c #F5A566",
"$. c #E4B16D",
"%. c #ECB36D",
"&. c #EBB367",
"*. c #F3B365",
"=. c #F2B46C",
"-. c #F7B96A",
";. c #E3AD74",
":. c #EAAD72",
">. c #E3AD7B",
",. c #EBAE7A",
"<. c #E6A573",
"1. c #F4AD76",
"2. c #E4B275",
"3. c #EBB374",
"4. c #ECBA74",
"5. c #E4B47C",
"6. c #EAB57C",
"7. c #E4BA7E",
"8. c #ECBB7C",
"9. c #E7BB72",
"0. c #F2B574",
"q. c #F3BA74",
"w. c #F3BC7C",
"e. c #F6BB77",
"r. c #F3C17C",
"t. c #FAC579",
"y. c #EEC279",
"u. c #CDAC83",
"i. c #CAAC89",
"p. c #D3AD83",
"a. c #DBAE83",
"s. c #D8AB85",
"d. c #CEB58E",
"f. c #D4B284",
"g. c #DBB383",
"h. c #DDB985",
"j. c #D5B48B",
"k. c #DBB58B",
"l. c #DCBA8C",
"z. c #D6BA8D",
"x. c #CEB492",
"c. c #D5B691",
"v. c #D6BA94",
"b. c #DBBC94",
"n. c #DCBE9A",
"m. c #D6BB98",
"M. c #E5AC84",
"N. c #E3B583",
"B. c #EAB684",
"V. c #E5BA84",
"C. c #EBBB84",
"Z. c #E3B68A",
"A. c #E9B68A",
"S. c #E4BC8C",
"D. c #EBBD8C",
"F. c #F1BD84",
"G. c #FABE82",
"H. c #F2BE8B",
"J. c #F4B786",
"K. c #E3BD92",
"L. c #EABE93",
"P. c #E2BE99",
"I. c #EEBE98",
"U. c #F1BC94",
"Y. c #DBBFA1",
"T. c #D4BCA0",
"R. c #DEC194",
"E. c #DCC19C",
"W. c #EDC185",
"Q. c #E6C28D",
"!. c #ECC28C",
"~. c #E7C183",
"^. c #F4C284",
"/. c #FAC683",
"(. c #F3C38B",
"). c #FAC68D",
"_. c #F3C98C",
"`. c #FAC98E",
"'. c #F9CB86",
"]. c #E4C294",
"[. c #ECC494",
"{. c #ECC994",
"}. c #E3C49C",
"|. c #EBC59A",
" X c #E5C99C",
".X c #ECCA9D",
"XX c #F3C593",
"oX c #F4CA95",
"OX c #FACC94",
"+X c #F2C59A",
"@X c #F3CC9B",
"#X c #F9CC9C",
"$X c #F9C695",
"%X c #F2D19E",
"&X c #F9D29D",
"*X c #F9D193",
"=X c #FCD08F",
"-X c #DDC4A3",
";X c #DDCAAB",
":X c #D9C5A4",
">X c #E3C5A2",
",X c #EAC6A2",
"<X c #E4CAA4",
"1X c #ECCCA4",
"2X c #E2C6A8",
"3X c #E4CCAB",
"4X c #EBCDAA",
"5X c #F3CDA3",
"6X c #F1CEA8",
"7X c #FACEA5",
"8X c #EDD1A4",
"9X c #ECD2AB",
"0X c #E8D3AC",
"qX c #F3D2A4",
"wX c #FBD4A3",
"eX c #F4D4AC",
"rX c #FBD5AA",
"tX c #FBDAAC",
"yX c #F7D9A8",
"uX c #E4CDB2",
"iX c #ECCDB0",
"pX c #E6D1B3",
"aX c #ECD4B3",
"sX c #EAD5BA",
"dX c #EEDABB",
"fX c #EAD6B6",
"gX c #F3D5B3",
"hX c #F4DAB5",
"jX c #FBDCB4",
"kX c #F3DCBB",
"lX c #FBDEBB",
"zX c #F6D6B5",
"xX c #F1CFB3",
"cX c #F8E3BD",
"vX c #EDDCC2",
"bX c #E7D7C3",
"nX c #F2DDC2",
"mX c #FADFC0",
"MX c #F2DED3",
"NX c #EEE1C6",
"BX c #F5E2C4",
"VX c #FAE2C4",
"CX c #F6E4CA",
"ZX c #FDE7C9",
"AX c #EDE5D4",
"SX c #F4E7D4",
/* pixels */
">X/ [ S.g.|.S O.rX` 2.}.B f oXq.' .Xl wX,.i .X5 2.^.q.Y ! 0 d D g.I eXZ.l.x |.oXx U L.[ X.jX3.w.pX~ R.[.o.6.f.6.s.{.hXc.:X|.MX].",
"A oXgX'.;.6.M.5XE.8XV.K [.$Xa :.*.B qX].o.C.L 2.q.U 6.P _ l M D SXG.!.M [.w.|.5.C.*.@ 8.` R.*.0 k.<X! p.,X5.` E.q.N XXOXY eXl. X",
"!.+Xq S.5.S.-Xr.Y 9X_.ZX.X8.e &X2.%X3.].I ;.v. Xh.F.-.w.;.t 5.[ >.S 2 5.9 +XkX_ y.5X!.'.+X[ ' g.8.!.D.b.}.w.(.f Z.Q.XXg.g.0X/.U.",
"B.(.g.].H.C.cXpX/ r e g ^.G.,X!.B.e.c  X[ B.B.4.S.p +Xi <.V.qXoXK.wXp 0 V.2 F.2.F oXoX<XR. .@XF.*.^. XtX6X` ^ +XS.V.}.G wXqX3..X",
"!.^.OXp F.fX!.XXJ |.8.8.$.V .XX.S.i } B.$X*.G.'.].0.%.b -.I =.X.R 8 C ( u.eX9 5.6.j.8X3XW &XeXY K.-XeX} }.1.8.(.S.tX-Xa ..R.w.XX",
"r.` o.;XD.'.L ^ F.i d g.q '.S.^.2.e.q.0.(.'.C.O.g.M 3.P C.xXS.g.X.F.5Xt.8 A qXwX].mXX./ j &X{./ E.].K.N..Xn.1XV.1X5X}.b.rXE.|.Q.",
"S.}.XX7.1X/ W.!.` 6.C.#X6.uXa.} XX-.eXn.C.z @X!.7.t.V.P 0.Z.X.S.w.5.eXy !.@XV.:.V.XX( CX{.(.~ V.2..XVXB.%X<XN.4.~.[.S.}.OX3 ^.].",
".X#Xa.: K.+Xj.U ` t.C.).D.:._ 8.q.H.!.2.;.oXK P n.:.8.r.(.P $.^.}.0.O %X6.3XZ.XXtXbX3XkX` #X> (.H.!.5.[.V.].sXm.BX2XX.F (.H.].}.",
":.M.;.( D.A.) +X^.g.` !.d N.v U K.N L ` wXT _ |.Y h.z.^.4X} OXR U o..XU / h (.} XXF.D.I.L <X+.N.R A.[.D.N. XkX[.1XP E.#Xp.{.1XK.",
";.}.H.5. XC.D.L.W.| cX/.X.(.h.. 8.eX!.8.[.2.OXE.k.3X@X5.gX].dX[.2.R E N.Z 2.% [.).2.9X/ =.W.t.(.rXK.+Xe.[.oX+.C 8X2.g.` z.A..XVX",
"F.|.b U / wXeXsX3.e Z.nXX.[ rX5.!.K.%.: i.8.kX,XN.3.7Xk.u.C.D.E..X/ S.f ..!.L ' &XF./.u.Y XXV.].].uXuXu.S./ !.*.s ~ v.8X(.m (.v.",
"3.|.<XD.nX' aXq.B.^.!.{.qXOXtX>.B.!.k.hXd OXC.` C.!.K [ :X4.{.8 ] <.2.} ].U 2.6.L $ }.B.i eX XpX3.[ S.u.OXz g.^ $.V./.OX= L 6X*.",
"o.H.O.(.! 6 w.l l.~ E.].u.6.`.wXl.*X@X] 9X3.K.V z.>.[ l.[ ^ ! ..! ) } xX` c ~ c } s !.+ G.E.[.^ r W.` %X&XoXU C o.E  Xl.6.].}.N.",
"0.#X^ %XY.qXk.j..XS.*.T E.S.h !.}.6.6.dX[.Q.:XV.].8.BXO...U W.D.q BXz z.8.+XaX! qX(.J D.A.>.k.BXeX<Xh V j.| B.[.5.5X^.2.[.w.J R ",
"8.K.1X<.Q.%.& b.H.,X-.-.k.8.+X7.K.XX] 3X% U.W.=.].!.n.OX_ 6X3.[ <X1XY i.wXq N.vXOX` 8.SX_ 6XH 7.k.o.C...7.[.wXR OX_ qXb.R.6.^.f.",
"u.P.g.S.8Xv 4.eXL.>.SX.X).9XV.K.W.&XeX5.jX^.Q.h 5.3 3.1X` J.^.yX .X.V.1XV.e.r.rXV.: 1XZ h.D.R } L.V.X.r.8X8X}.h._.U.8X6.7.c aXV.",
"|.O.C.D.].gX6.{.5X6.M S.5.5X}.Z 1X3XA.9XZ.[.&X{.|.+XS.8.8.S.!.| T 6.= C.F.A.` L.[.X.N.+XW K 6.c } oX3XE.v.k.g.eXN._ o.eXB.C.N.oX",
"6 qXf.L l.h ..}.o.Y ,Xk.}.b.( B.^ n.].Z.7.XXv.+XD.=.[.c A.Q.OX].>Xz.1Xb.Z <.f OXV.V.^ ].1.$X[.jXA.f.-X3XOXw.zX..a.;.% } @X X$X! ",
"|.3XX.E.H.D.(.OXK.=.3 oXgX1XiX,X<X3.#Xe B.|.P.:.|.U 0.Q.[ 2.l ^.5.aX1Xc F.k.T O.}.kXtX|.V Q.vXe.eX{.wX+.P.~ oXhX~ =.g.z @ 9X XhX",
"|.L.CXhXK.g.5X#X}./ ;X%.4.G pX` :   S.XX_ E.B.:.}..XL zXP n.W S.Z 8.8.g.g.p /.(.kXB.0X5.9X5.= 3XZX!.`.v...v.1X3.n.V.# >.cXl.qXqX",
"_ eXr.}.k.S 3X} >XlXN.ZX|.l.1XwXC.W 5Xm g.:.wXq.;.*.j Q.2.4.$XI.q k.G.V.lXY A XXC.F I V.9X[..X5.E.( 2.AXD.^.l.ZX*.L h.}.!.hXnXZ.",
">.0 D.qX_ 7X2.p 7.S.V.) 1XqXS.^ oX[.S.K ).[ (.9 <XeX&Xx } I j +X/.S.g.a._ W.e.}.wX8.kXw.u.4.u.3XdXI 2.C.' K O.{.S.qXb.U.+.9X! hX",
"'.6.;.].wXM.dXXX4.G U @XD.C.<Xf.[ }..X^.v w.n :X_ _ wXb.` b.6.w.qXs M cX! U v.qXr S.V.[.5X-X(.D.4XqXK.|.1X..&XgX.Xa.b.%XW b.C m ",
"].}.7XK.N.].L.S.8 9Xr ;XF.`._.` V.T N 6.[.L v =.k.v.wXU b.+XQ.!.qX@XC.1 T c.-.].qXA.g.[.1X|.S.c U _ !.CX5.E.S.B.2.jXhX2Xl.1XL.G ",
";X! A.0X3.C.1X.Xl...}.O.A.3XB.8X/.3XzXB.K.( <.>.1X}.<.! B k.r A./.V.8 ~.3.cX7.[.0XH.lX] b.K.o.C.2.Q.f.}..Xf.}._ l.W } :.1Xp.U !.",
"! jXn -X;XS.w.N _ |.0 fX(.;.9X(.7..X.X2.}.(.s.%.V b.*X}.[ ].^.wXR 5XzX;.<XR oXX.1XeXqX<X3XE.5X>XBXI m.|.6.7X` ' B.XX[.K.q = !.C.",
"}.*Xf.. <Xk b.q.R (.K.` dXhX..P 6X2.tX$XF 5XR 6.5X|.0 L ! j.<XnXa 4XC.2.2Xw.sXE. .k.h.2X1X[ f.` O Y C.3.S.p.5.hXK XX[ A.C V.g. .",
"$XeXA.k.&XB.eX>XB.d.a C 8.S.7Xl.M ^ G 3Xp S.XXC.%.[.7._.a g.j.1.g.D 3.{.wX!.+X XqXcXW [.K E.{.{.b.].B.oXk.Y p !.l.VXfXp E.z.3.yX",
"vX^._ VX;X3X}.4 h k.D.< A.Y [.].Q.A.>.4X!.6.W.e >X8.2.[.rXAXL.P.[.p [.C.5.g.vXP -X: ,X%.g.2. XZ.C [ K.kXf.1X3.P.2Xh.W {.D.}..XE ",
"mX#X>X^ :X X1XtXj..X^ E h eXf P.S.kX1Xl.w.u.L.I J.vXfX^.tX+X[ P.1XB.eX;Xg.!.B.* 1X2 oX!.q 6X4X].a.>.E x k./ 8.X.7 6 h.$ XXI {.3X",
"B cXv.[ vX2.J.N.c V.}.U B. Xv.U i !.&Xv.>X' tXC.l.Z.oX}.u.(.(.wX.X5XV.j.>XpXK.` 5X1X&.C.0 p -X; lXgXB.(.;.l.` (.q.V.v.W.8Xb.* sX",
"' h.H.P.1X` k.wX3Xl.[.;.B.3X2X,.) !.3.V.j.e B.L S.:.(.s 8.S.CX'.{.S.h.I A./ .X=.L t VX-XqXV.<X/.u.OX X3X#X0 j.jX(.D.|.k.* ;.d 5X",
"(.p 5XK.@ S.1Xy T..Xn.lX].{.W >.S.*.aX!.@Xe.;.!.CX6.@Xv./ ZX<XW.5.L .XP.wX2XV.4X] Q ].S.6.<X].*X-X<X` <X5.n.K.U 1X- 1 ` sXF.I BX",
"1XZ 5.Z.<.SX;.L ( 6.{.h.K.D.(.@Xp.NX.X#Xs V ` B.K 0Xf./ k.P >X$.a.3.C.7.a.r.<X3.b.{.K.0X}.].L.w.gX].R..XvXXXX.1X.XR L ^ h / [ #.",
"_ D.s - 3X` >.C.Z.^ zXQ.].f.v.b.oXoX+XX _ ^.{.zXs b z.|.g.SXD.l.B.;.r.oXD..X@Xj.lXjX0X3.!.XXN.2.8.Z | jX*Xg.5.{.6.wXOXz.@XS.^ K.",
"H.[.L 5.].h.&.8..XqX-X/ f...b.!.` hX|.P.l.1XnXM.|.%Xb.1X:.m.!.}.k.g.>.g.}.3.eX XqXv.n.<.2.N.Y B hX` b.R gXm.K rXf.3.{.# g.{.k.+X",
".Xc.wX .eXD.p.3.zXt.wXz.5.&.L.x 2.q.z.A.!.B.8 B.D.v .X_ ~.&Xp.S.` L.SX!.vX!.` S.<XXX,.j.V.p oX! a.f.7.+XV.Q.:XV.5X4.X.P ) &Xu.w ",
"&.zXj 5X XW.` !.6XF.f n.f.k.#XZ.C.8.q.f.oX2.cX{.u.N lXS.jX{.U tXU.].( d.` ..8. X5X].Z.1Xi wXZ.m.1XP k.D. X.X^ eX7.lX1Xf.7.D.j.q ",
";X!.7.1XA.X.E 6XOXF.E.S.kX#X[._.hX(.p.g.h.B._ [ L.|.l.p.g.! h.F <X1X1X1X4 R uXe.l.g.B.v.2.2 B.Z.f.B.L.A.` C.].q VXH.V.S.h.V.[.h.",
"k.^ ) 4.K.].V N ~ M.0./ V h.N.B.z.g.@X2XC.^ 1X` [.e 5.@X!.1X!.U zX|.Y h.! k.p XX].R.].N.A.5.aXc.SXj.v.a oXcX9XS.z h U N oX{ [.B.",
"] Q BX}.2.C E.2XR W ..b.S.gXyX2._ ` ;./ x !.,./ B ,.].2.B.^ U 4.hX8.a i.6.qXV.!.M w D./ M.1XL.eX2.]._ ' 1XS.X.<X@XD.3XY 2.NX9X^ ",
"|.n.K.{.3.4X8XN.N ^.(.} ~ P }.| 2.( R _.K.w.j.M o.H.=.C.&XcXh.;.kXo.eXkX Xh ] V.@X5.}.~ u.[.C.XXV.Q.9Xp.2.S.].).[ = z.qXY V.^ 5.",
"n.k.U rX<XaXE.} l.0 >XeXR #X! * a C..Xf.5.3X-.A.U g.S.}.4.3.-Xb.] <Xa.^ a >XN. XL.@X2X].8.l.NXZ.!.].}.( yX/ 5Xm...Q.VXf.+XL.' &X",
"n.0.].}.C.@X.XmXn.8X].|.qXS.F.[ E.[.R.U ` B.V.<Xk.L..XI i [.5.K.|.+XM @Xc q.g.qX$.|.g.|.E.1X.X3X8.g.[ w.[.D.! ].{.I c oX!.{.8X] ",
"2.!.+X$.H.K.zXt 9XX.Q.].fX}. XX.3.OX}.9Xe S.-.^ _ _ 6.=.,Xq.g.I L._.^ (.1X@X! l.c.w.jX>XsXrX( |.y E.zX .[.v.1X<XV.^ 6XA.R.8.$.`.",
"E.1XD.>X1Xw }./ 6.4.}.! >.}.2./ z.r b h S.2X^ k.N.E ].r.A eXg.D.g.p.C N.v / ~ S.1X}.6XK.;.[ XXH.t j.^ 8.X._ |.qXf.}.zX XL l.e qX",
">Xp.M.gXF.,XdXL.kX{._ S.=.n.[.(.} 6 k.<XcX` zX2 L.t.!.F W C 5.^ l.CX|.2.| +.(.b..X>X|.(.3X}.1Xx.D.}.Y g.c.} :X<X]..Xk.k. .~ f.~.",
"V.;.A.g.5X].S X.[ [ ^ ) p.}.T A |.C.M.v.!.6.1X3.8.n.8.].u.# I g.[ &X/ S.= !.{.,XwXo.A ;X1XV. XV.eXN.K }.( N.>X X} 4X7.+X/  X7.j.",
"q W L.E.n.;X XV.7 yXU CX;.@XI.U H E.Q.[ | E.k.^ ` l i.@X#.R.f.|.}.S.R Q.6.b.} B.k.B.D gXg.[ j.Y 5.! ~ B.8..Xq 3X .p.* ].(.} C o.",
":Xc.R S.g.U eXI C.kXk.$.6.L.3.#X^ fXp.[.1XoX[ oX2..X{.!.ZXF [ M S.Z.L L L 8X<Xb.1 (.[ L.K.f.' ..T ].0XXX{.' :X0X1.! ~ jXg.k.[ B.",
"L.X.g.-X.XjXS.s A.NX}.3X/ b.S.s _ @XpX7.z.8.n.oX2.3./ ;.eX5XC ..T p.0X@.wX@XI }..X9Xv !.Q.4.CXoX#Xl.1XR.OXE.u.B./ q.@XE.eXj.S.f.",
"1X0X#X! XXL.[.1X@Xv.pX[ pXa.zX|.!.] !.C.p.K.k.j.7.qX[.^.6.&.oX].wX!.!._ B M 6.}.R R.g.>.0Xo.8.u.d.2.d.rX.X! @X].5X5.;.E.{.;...kX",
"hX2X/ uX2XE k.5.` ^.zXwX2XSXlX_.5Xn.S.C.| @.n.5X].6X[.].k.>.eXF.H.,X(.g.@X;.u C h E.S.@X^ m.C.aXj.g.6 ;.E.5.P.,XC. Xb.K.:XN.N.|.",
"3.U <XN.3XgX/ gX! 1X6XeXS.U.[.| P.2.4. XS A S.f.  Z ).z.} 6.[.K.[.[.k.v. Xf.P.^ -X1X}.pX>X[..X!.S.2 gX@X!.h.n aXY B.N.u.F.Z./ y ",
" X6.yX,.rX$.5X} }.2.;.6.t >Xg.s kXv.Q.- A V.R.` N = P [ @X2.w.p.r ;X/.].m.Y r.a 5.>XL.h.| 2.3 ;.eXeX^ @Xx.].;.l XXAXI.<.n.E.zXN.",
"N.B ].5.4XV.C.X |.-XA.u.^ 3 k.eX}.<X].6..X@XP.@X>XN._ & b.G 6.@XN D.c.1X<XtXf.BXB.].5.R.@Xx.uX<X[.kX5.3Xx E.! B a./ & V.u.q D.kX",
"1X` R / Q.b.pX+ wXM 5.D.S.k.>Xm.u.t [.V.gXXXS.4.T l.8.[ V f.! j.v.b @X/ g._ oX2X1 | ).Y u.[.{.2 ].I @X` _ R.[.^ l.>.B 4X|.]. XZ ",
"VX<XM eXY E.3X[ 9XQ.0.D.p.i.n.2.c _ K.eX4.` W.` 8X/ [.9X1XK.P k.V.G L.1Xi bXB.~ _ !.k.[.l.W.& p.;.R.9X~.{.^ 3XC.(.].OXnX3X.X1Xn.",
"3X} 5.<./.;.P.k.-XC.K.$X;.g.!.}.W 4XqXV E.-X;. XU N.S.p.` zX!.[ Z I Z.7.[.E.@.Z 6.j.4.l.4.(.3X8._ }.s.T [ nX/ Z.>.w.0X1XS (.o.I ",
"j.q ' C U tX+Xi.cX}.B.8 Z.-X1XR.N.XXn.aXl.(.eX~ 9X<X+Xv.N.].N.M.[.qXB.W 5.^ N.6.lX X1X` r I ) <X[ X.k.<X3X%.N.r ^ eX].AX].XXh.].",
"P M.+Xk.^.+XrXhXaXD.1Xa.V.<Xu.3X>XE 4X;.L.u.&.E W N.r..X;.3X}.l.<.<XD.Q.|.^.+X[.N.|.V.dXK.^ BXp.g.D u.V.eXs.8.(.].j.2.gXC 6XrXbX",
"a K.>XD.g.w.I.p.  9Xb.D.+XX.j.<XvXk.,X8 3Xj.f.1XiXq 2.m.! <Xp.rXzXQ l.}.` W.^.1X8.}.B.eX8.h E.s V.V. X>X2.<X].<.,.Q.}.vX+.E.hX<X",
"b %Xo.>Xk.uXj.XX&.O v.c.B l.fXW N.>XN.1XL.U P.q M.e &.>.F.uX1XK.n.B.6XN.b.S.s.vX[.z.u ].h u.pX[.].cX2.j.8 f.vXA.[ 1X8.5.A ! :.@X",
"6.j.C.}.R Y.Z.} ).rXn.#XdXn.f.4X|.[.B.q.!.iXc.p.2.f.w.n.j._ h.)  X3XA eX/.@X;.G.[.].6 5.Q.(.).f.k.5. X- C.Q pXgXX.pX[ 5.&X:XQ )."
};
