/* XPM */
static char *ff0d71dc3dd24a47b16a3ad92932d596Fp8VqG0SLmxvDTfj[] = {
/* columns rows colors chars-per-pixel */
"64 64 219 2 ",
"   c #6E5C74",
".  c #971703",
"X  c #AA1801",
"o  c #B61600",
"O  c #BA1700",
"+  c #BC1C00",
"@  c #B21800",
"#  c #9A3616",
"$  c #98260B",
"%  c #AA2807",
"&  c #B52202",
"*  c #BB2201",
"=  c #BC2902",
"-  c #B42D0A",
";  c #B72B07",
":  c #BC3304",
">  c #B9340C",
",  c #B93D17",
"<  c #AA3410",
"1  c #A33B20",
"2  c #C41C00",
"3  c #C91F01",
"4  c #C42401",
"5  c #CC2400",
"6  c #C42B02",
"7  c #CC2B01",
"8  c #D22601",
"9  c #D42C00",
"0  c #DA2C00",
"q  c #D82600",
"w  c #C13304",
"e  c #CD3103",
"r  c #C3330E",
"t  c #CD3A0B",
"y  c #C93609",
"u  c #D53402",
"i  c #DA3301",
"p  c #D53A04",
"a  c #DB3B04",
"s  c #D43B0B",
"d  c #D93D0B",
"f  c #C33818",
"g  c #D33C12",
"h  c #D73F18",
"j  c #C33D22",
"k  c #B7491C",
"l  c #914B3E",
"z  c #AA4522",
"x  c #B84627",
"c  c #B85A3A",
"v  c #AB4F2D",
"b  c #D7410D",
"n  c #DB420D",
"m  c #C94118",
"M  c #D44314",
"N  c #DA4513",
"B  c #DA4915",
"V  c #DA461B",
"C  c #D6491C",
"Z  c #DB4B1C",
"A  c #D64619",
"S  c #CE4109",
"D  c #E14D1E",
"F  c #C84D29",
"G  c #D54C24",
"H  c #DC4E21",
"J  c #D54929",
"K  c #D54220",
"L  c #DC5124",
"P  c #D5532C",
"I  c #DC522C",
"U  c #DC592D",
"Y  c #C85B38",
"T  c #D75334",
"R  c #DE5731",
"E  c #DC5934",
"W  c #D45A3B",
"Q  c #DC5D3C",
"!  c #D45739",
"~  c #CE532A",
"^  c #E14F23",
"/  c #E25327",
"(  c #E15B35",
")  c #E15C39",
"_  c #E15730",
"`  c #DC603E",
"'  c #E2613D",
"]  c #92564E",
"[  c #A55741",
"{  c #B66C4C",
"}  c #B77758",
"|  c #AE6B53",
" . c #8E6271",
".. c #AB7C74",
"X. c #AB7271",
"o. c #D95E44",
"O. c #DA5F4D",
"+. c #C55B41",
"@. c #DD6443",
"#. c #DA6347",
"$. c #D96D51",
"%. c #D6725B",
"&. c #C47551",
"*. c #E16442",
"=. c #E46A45",
"-. c #E36D4B",
";. c #E5744F",
":. c #DA7963",
">. c #B68B72",
",. c #DD8469",
"<. c #DE8971",
"1. c #C4967A",
"2. c #D89279",
"3. c #CE897A",
"4. c #E08570",
"5. c #756A93",
"6. c #556CA8",
"7. c #5B73AF",
"8. c #6171AF",
"9. c #7676AA",
"0. c #3276EC",
"q. c #3B7BE7",
"w. c #2A67FE",
"e. c #266DFE",
"r. c #2A6DFE",
"t. c #2D75F5",
"y. c #2674FE",
"u. c #2B75FE",
"i. c #2778FF",
"p. c #2D7BFE",
"a. c #3176FE",
"s. c #327DFE",
"d. c #397EFE",
"f. c #367DF3",
"g. c #2F77EF",
"h. c #4D7ECA",
"j. c #5575C9",
"k. c #457DDA",
"l. c #427CE8",
"z. c #A17083",
"x. c #92738E",
"c. c #5981BF",
"v. c #7485AB",
"b. c #2E81FE",
"n. c #3482F5",
"m. c #3483FE",
"M. c #3986FE",
"N. c #3986FD",
"B. c #3788FE",
"V. c #3988FE",
"C. c #3A89FF",
"Z. c #3A8AFE",
"A. c #3D8EFE",
"S. c #3B8AFE",
"D. c #3A88F5",
"F. c #3F90FE",
"G. c #3780EF",
"H. c #4E83DE",
"J. c #5687D9",
"K. c #5C8BD1",
"L. c #638AD4",
"P. c #6796D9",
"I. c #7396D0",
"U. c #77A4DE",
"Y. c #4086EE",
"T. c #418DFD",
"R. c #4183FE",
"E. c #4392FD",
"W. c #4A99FE",
"Q. c #978A89",
"!. c #898A92",
"~. c #9B9897",
"^. c #9D8897",
"/. c #BE988A",
"(. c #A09792",
"). c #A6A398",
"_. c #B8AC9E",
"`. c #9AA6B6",
"'. c #B8B4AA",
"]. c #BBBBB3",
"[. c #B2B6B9",
"{. c #ABAEB1",
"}. c #C79885",
"|. c #D79787",
" X c #E39B8C",
".X c #C7A389",
"XX c #D9A995",
"oX c #C6B29C",
"OX c #D6AB96",
"+X c #E2A590",
"@X c #C7B9A7",
"#X c #D1B9A3",
"$X c #D0B6AB",
"%X c #E5B1A3",
"&X c #CAC0AF",
"*X c #CBC3B5",
"=X c #C5C2B5",
"-X c #D3C9BC",
";X c #E5C1B3",
":X c #86A9D7",
">X c #B3BDC7",
",X c #B8C4D0",
"<X c #C5CCD9",
"1X c #C9D4DF",
"2X c #DCC8C9",
"3X c #E6D7D6",
"4X c #E3CDC5",
"5X c #F2E4D9",
"6X c #C9D3E2",
"7X c #C7CFE2",
"8X c #DAE2EB",
"9X c #E7E9EA",
"0X c #F2EAE9",
"qX c #E5EDF3",
"wX c #EAEDF2",
"eX c #EDF2F5",
"rX c #EFF4F8",
"tX c #F2F3F5",
"yX c #FAFBFB",
/* pixels */
"u.u.u.a.s.p.u.s.s.a.a.a.p.a.s.p.u.u.e.r.e.e.r.u.u.u.u.p.m.m.s.s.m.s.m.m.B.m.s.s.s.m.b.m.Z.N.N.s.p.p.s.p.s.s.p.p.u.u.u.u.u.u.a.r.",
"u.u.u.p.u.s.s.s.t.s.u.p.n.m.s.s.a.y.e.e.e.e.r.y.t.u.p.s.m.N.m.m.s.m.s.B.N.m.N.N.p.m.p.S.s.Z.m.s.p.p.s.a.a.s.p.a.u.u.p.u.u.u.a.r.",
"u.u.p.p.p.a.s.p.s.u.p.p.N.m.m.N.u.r.e.e.e.e.r.u.u.p.s.m.Z.Z.n.m.m.m.N.m.V.S.S.m.m.s.s.m.m.s.s.s.u.p.p.s.p.s.a.u.u.u.p.u.p.p.a.u.",
"u.u.u.u.u.p.m.p.s.p.m.m.T.Z.N.N.u.y.e.e.r.r.u.p.p.p.s.s.m.V.m.N.m.m.N.m.V.A.N.m.m.s.p.p.s.s.p.p.p.p.p.a.m.a.p.u.p.u.p.p.p.a.a.s.",
"u.u.i.p.p.p.m.m.m.b.m.m.N.A.Z.p.y.p.u.e.y.t.m.p.m.m.n.m.Z.E.V.V.Z.Z.B.V.A.A.V.m.s.s.b.p.m.s.p.p.u.u.p.p.u.a.a.u.u.p.p.a.a.a.a.a.",
"i.i.u.u.p.b.b.b.m.b.m.V.S.T.V.p.u.u.y.u.a.p.b.m.p.m.B.Z.A.V.Z.F.S.V.B.Z.S.V.m.n.m.m.s.m.m.p.s.p.u.u.u.u.p.p.u.u.u.a.s.s.s.s.s.u.",
"u.u.u.p.p.p.b.m.b.m.m.m.F.E.N.m.p.i.i.u.p.p.B.b.m.b.Z.F.S.A.D.F.A.V.B.m.B.m.m.m.m.m.m.s.p.p.p.p.u.i.u.u.u.u.a.u.a.s.a.s.m.s.a.u.",
"i.u.u.u.u.p.V.m.B.b.n.B.B.V.B.p.u.u.y.u.u.m.B.b.b.m.F.A.T.F.F.Z.V.m.B.m.m.m.m.V.m.m.p.s.m.s.s.p.u.i.i.u.u.a.u.p.p.s.m.N.s.s.p.a.",
"u.u.p.p.p.p.b.b.b.b.b.m.V.A.m.p.u.u.i.i.u.p.p.b.m.b.V.V.A.F.A.A.V.b.B.m.m.B.B.n.m.m.p.m.s.s.p.p.u.u.u.t.u.u.u.t.p.a.s.m.p.p.u.u.",
"p.p.n.m.p.p.p.b.b.b.m.m.b.m.b.b.u.i.u.u.p.p.p.b.p.b.Z.Z.F.A.V.b.m.m.b.b.V.A.V.V.m.m.s.b.s.s.s.p.b.u.u.y.u.u.u.y.s.s.n.p.p.p.u.u.",
"b.m.m.p.p.p.p.b.m.m.p.n.b.m.m.u.u.u.u.u.p.u.u.p.p.b.F.Z.A.m.V.b.b.p.m.n.A.D.E.V.m.m.b.b.s.b.p.p.p.u.i.r.e.a.e.e.p.s.m.s.u.p.a.p.",
"s.s.s.m.p.b.p.p.p.m.s.p.p.p.b.u.y.u.u.u.u.p.p.p.p.F.F.U.=XOX.X].].1.}.#X-X:XD.B.m.b.m.s.b.b.b.p.p.u.y.e.r.e.e.e.s.s.B.s.a.u.a.p.",
"p.m.m.a.p.u.p.i.p.p.s.p.p.p.u.u.y.t.r.u.p.p.p.a.U.#X~ t 8 8 %.6X<Xf 0 5 7 m 2.4X*XP.b.m.p.p.b.p.i.i.e.e.e.e.e.e.f.V.d.N.n.a.u.p.",
"p.p.p.u.u.u.i.p.p.p.p.p.p.m.p.u.y.e.r.u.a.q.-X&.u 8 q 0 0 i ,.qXqXP i i 0 9 q 9 x 5X*Xm.s.p.p.u.i.i.y.e.e.e.e.e.S.T.a.d.N.r.u.s.",
"p.i.p.i.i.i.i.u.u.u.p.p.p.p.u.i.u.e.u.p.L.&.u 8 q i a n D /  XrXrX%./ Z n a i 0 8 e c $Xp.p.u.i.y.y.y.e.e.y.u.t.a.s.N.T.s.u.a.u.",
"u.u.i.u.i.p.u.u.p.p.p.s.a.a.t.y.r.r.u.G.}.5 q i a D ) -.;.;.+XrXqX,.-.=.*.( ^ n i 9 9 x L.u.p.u.y.y.y.y.y.i.u.i.a.s.s.d.s.t.a.a.",
"b.p.u.p.u.p.p.p.p.p.p.p.p.p.e.e.r.u.j.M Y 9 a H ' =.' ) _ / 2.wXqX$._ ( ' ' ' E D a i ~ t Q.p.u.i.y.y.y.y.p.p.p.p.p.p.m.m.a.s.a.",
"m.m.s.p.p.p.p.m.s.s.m.a.u.u.r.u.r.7.M b s d R =.( L N a i i :.8X8X~ i d Z _ ) ' ( ^ N u s t >.p.i.i.i.i.p.p.b.i.p.p.s.m.p.a.a.p.",
"m.N.s.p.p.b.b.n.s.p.a.p.u.r.r.u.j.N V V u Q Q D a i 9 q 5 5 %.6X<Xj 8 8 0 i N / ( *.) Z s s s ^.i.i.i.i.p.b.b.b.p.p.p.s.s.s.s.u.",
"m.p.n.p.p.p.p.p.s.p.p.u.u.r.t.@X[ F u g E ' Z i 8 8 5 4 4 ; [ >X`.1 4 3 4 8 9 i Z ) ' ( Z 9 m x .Xt.i.b.b.b.b.b.b.p.b.p.a.a.p.a.",
"m.F.p.p.p.p.p.p.p.p.u.u.r.u.>X, 5 9 B Q ' Z i 8 4 5 -   G.V.Z.m.V.m.B.J.l = 4 8 0 d _ *.) N 0 5 : &Xp.b.b.b.m.b.s.p.m.a.a.p.u.a.",
"p.i.p.p.p.p.p.u.u.p.p.p.p.u.1.3 8 d ` -.Z u 8 5 = 5.m.m.Z.Z.A.Z.V.B.B.B.m.B.l 4 5 9 d Q ) Z a 9 e k P.b.p.b.b.m.m.m.s.s.s.s.a.a.",
"b.p.p.n.p.p.b.b.p.p.p.s.s.[.6 5 u P -.R p 9 5 > G.f.B.S.V.m.m.A.N.S.B.B.V.m.V.6.4 8 0 d *.@.N i 7 : #Xp.b.b.b.b.m.p.d.a.s.s.m.s.",
"p.m.b.b.m.m.p.m.s.s.n.S.m.} 4 8 V E L a 9 5 - f.V.V.V.V.Z.B.F.S.V.N.V.m.m.A.V.Z.k.4 4 i H ` H a i 7 k J.b.b.i.b.s.s.s.s.d.s.s.s.",
"m.m.B.m.B.m.N.V.B.N.S.T.:X> 3 u I Q H u 5 4 H.Z.Z.S.Z.S.Z.A.D.Z.V.V.N.N.D.m.Z.m.V.6.4 8 i E R Z i 7 w &Xb.p.m.s.s.s.a.s.N.s.N.s.",
"s.N.S.N.S.S.m.m.m.D.T.E.#X4 8 g Q G p 8 4 [ V.Z.Z.S.A.E.E.A.E.S.A.V.V.Z.N.Z.V.A.B.m.v 3 9 Z E H p i 6 } B.b.m.s.s.a.N.s.a.m.s.t.",
"d.N.N.E.T.A.m.n.m.S.S.W.{ 4 9 C Q Z p 9 5 b.N.Z.S.S.Z.S.E.T.W.E.E.V.S.V.V.B.m.m.m.m.n.7 8 a E ( n i 6 , P.Z.m.m.m.s.a.m.s.a.s.a.",
"s.N.S.N.A.A.m.m.m.N.T.U.> 4 s I I d i 7 , B.B.N.A.S.Z.S.E.E.A.A.T.F.A.D.n.B.E.V.m.A.V.x 7 i Z R B u 7 > `.V.m.N.s.T.s.B.s.N.p.s.",
"s.N.m.B.B.m.m.m.N.T.B.].= 7 s J P p 0 7 5.m.B.m.S.S.S.T.T.S.D.V.A.A.A.n.m.V.N.m.Z.F.F.8.5 9 Z Q Z p 7 w @Xm.T.N.D.a.d.m.m.d.a.u.",
"s.a.m.m.m.m.B.B.N.Z.A.'.>.2X0X9X0X3X4X}.f.m.B.N.S.T.T.S.S.S.F.B.D.V.A.B.V.m.S.E.D.F.A.m.2X0XtXtXeXqXqX<X_.d.d.f.S.s.a.E.N.S.N.u.",
"s.m.m.m.B.B.V.N.N.N.m.).,XqXeXeXtXwXeX8Xm.m.N.V.T.T.T.T.S.Z.V.B.V.m.Z.Z.T.Y.N.N.N.s.m.m.qXrXeXeXeXrXwX7X'.N.N.f.s.T.d.a.a.d.d.a.",
"p.b.m.b.m.V.A.S.N.T.m._.,XeXeXeXrXeXeXwXZ.m.V.V.N.S.T.E.F.V.B.V.B.m.m.Z.E.E.T.E.Z.p.s.u.qXqXeXeXeXrXwX6X'.N.N.N.s.D.d.d.a.a.a.s.",
"p.s.s.m.N.S.T.S.N.N.Z.oX- 6 m ` A s 7 +.B.N.V.V.E.T.E.E.D.B.B.Z.m.B.B.A.A.E.D.N.N.p.u.s.r u N E Z p e w >.m.N.d.d.S.N.d.a.a.a.a.",
"p.s.s.N.m.N.T.N.S.S.S.@X& 7 t T A p u 7 k.V.N.A.V.F.E.F.F.F.m.V.m.B.V.S.E.S.S.T.m.m.u.t.7 8 N R Z p e w 1.N.N.N.N.m.s.N.d.t.a.a.",
"m.N.N.N.T.N.S.S.S.N.N.@X& 6 t J C s 9 7  .V.A.A.A.D.F.E.Z.Z.m.m.m.F.F.N.m.d.N.N.N.s.a.9.8 u U I B p e w oXT.N.m.s.s.N.d.d.a.a.u.",
"a.s.d.m.N.N.N.S.N.T.S.`.; 4 u G T A i 5 r B.A.A.S.T.D.F.F.Z.s.N.D.Z.Z.S.N.N.s.N.s.s.u.f 8 d _ I B p 7 : @XN.S.N.N.N.N.N.s.d.a.r.",
"s.s.m.s.m.m.S.N.N.N.S.L.< + e m T G p 9 7 H.Z.Z.A.A.A.V.S.N.N.S.N.R.E.E.S.N.N.s.m.a.q.8 9 Z @.H b u 7 : {.S.Z.m.B.N.T.D.f.T.d.r.",
"s.p.m.s.m.s.N.S.S.N.S.F.} * 6 p P T b 9 5 f V.Z.A.Z.A.A.S.N.N.N.N.E.S.T.B.m.N.N.s.u.j 8 i I ' Z a e 6 k U.S.N.B.m.N.S.W.E.d.a.R.",
"s.s.p.s.m.m.m.m.b.m.m.A.@X& 4 e A W P p 8 5 z.S.T.S.D.S.T.T.N.s.N.S.T.T.T.N.N.D.m.x.8 9 N Q U B p 7 : .XF.S.s.N.N.N.S.N.N.R.d.w.",
"m.s.p.m.m.p.m.m.m.m.b.b.P.z 4 6 p G #.G 9 7 7 9.S.S.A.S.S.N.T.N.N.m.N.N.D.N.N.s.8.5 q p U ` Z p e 7 : ].E.S.N.s.N.Z.d.N.N.a.N.r.",
"s.s.s.s.m.m.m.m.m.m.b.b.b.&X& 4 7 A W #.s 8 5 7 X.N.Z.N.m.Z.Z.N.N.V.V.S.N.S.Z.x.7 8 i H ' I n u 7 = { q.B.a.p.m.N.m.m.m.a.m.a.r.",
"s.a.s.a.s.s.m.m.m.b.b.b.p.K.} & 4 7 J o.` s 8 5 8 r H.N.Z.N.Z.m.V.B.V.V.N.Y.j q q i L #.R B p u 7 : *Xm.p.s.m.m.s.m.m.a.s.a.u.u.",
"s.s.a.p.p.s.p.m.b.b.b.b.p.b.~.| . X & g o.o.b 8 8 3 5 r 5.f.N.Z.N.N.D.x.f 7 8 q i L @.Q B 7 - X % &Xp.p.s.m.s.s.s.s.s.s.s.a.a.s.",
"u.a.p.s.u.s.p.p.b.b.p.b.p.p.i.] ..y - * h o.` C s 9 8 8 8 5 Y 8X8X}.7 6 8 9 9 N R @.Q Z w = y /.>.0.p.p.p.a.s.s.s.m.m.s.s.a.T.d.",
"p.p.a.p.a.p.u.p.p.p.p.p.p.p.p.u., e y = 7 M ! T J C s 9 q 9 %.wXtXXX9 0 u N R ` Q R Z a = t p S t.i.p.p.s.s.s.a.d.s.m.m.s.d.a.N.",
"u.p.a.p.p.p.p.u.p.b.p.b.i.p.u.p.p.r u y 5 7 s J W o.o.E H N <.tXyXXXK R Q Q Q I Z N i 7 S s e q.y.y.p.i.p.s.n.s.d.s.s.s.s.s.d.s.",
"a.a.a.s.s.s.p.u.p.u.i.p.p.i.i.u.p.t.r /.2 3 4 8 g J O.:.<.<.%XyXyX%X%.#.Q I G N u 9 8 4 }.t v.I.u.u.p.p.p.s.a.a.s.s.s.a.s.s.d.d.",
"s.m.s.m.S.p.s.p.p.p.p.p.u.i.u.u.p.u.t.'.+ O 2 4 3 8 8 g h T +XyXyX%XT J V s 9 8 5 4 4 = *Xq.y.u.u.t.p.p.u.u.p.u.p.a.p.a.a.a.d.d.",
"s.m.d.T.V.N.n.p.s.p.u.u.i.i.u.u.u.p.u.q.@X- o O 2 2 4 8 5 7 |.yXyX|.8 8 8 8 5 4 2 4 = 1.J.i.y.i.i.p.p.p.y.r.y.u.u.a.u.u.a.p.a.a.",
"s.m.N.N.Z.V.m.m.m.b.p.p.p.p.p.p.p.p.p.p.g.Q.>.- @ o O 2 3 3 |.yXyX|.4 4 2 2 O O & < @Xv.y.y.i.i.i.p.i.i.u.r.r.t.u.u.u.u.u.a.s.p.",
"m.s.s.N.A.Z.E.B.m.m.p.p.p.p.p.b.p.p.p.s.p.p.h.).>.< X X o o |.yXyX3.X @ o X % z @X(.0.y.y.y.i.i.i.i.p.u.y.u.u.u.u.u.u.u.u.a.a.s.",
"s.s.m.N.V.A.B.m.m.p.p.p.p.p.p.m.s.p.m.p.b.p.m.N.H.Q.$X{ # $ ..1X7X| . # v }.'.!.g.u.u.y.u.y.i.i.i.i.i.i.u.u.u.u.u.u.r.u.a.d.s.s.",
"a.a.s.s.m.B.m.m.p.s.s.s.p.p.p.s.p.m.m.p.s.s.m.Z.V.D.A.K.!.(.'.].].'.~.~.7.G.n.b.i.p.i.i.u.i.p.i.i.i.i.i.u.p.p.s.a.a.u.r.a.s.s.a.",
"p.a.u.m.m.B.m.b.m.s.m.s.p.s.s.s.p.m.s.m.m.m.m.m.Z.V.V.Z.B.n.B.V.N.N.N.m.b.p.n.p.s.p.p.i.i.p.i.i.i.i.i.i.i.p.s.p.p.u.r.r.u.N.d.s.",
"a.p.p.p.p.n.b.m.s.m.s.s.m.s.p.p.s.m.m.b.m.b.m.m.B.V.V.B.B.m.N.V.m.V.m.m.b.m.p.b.b.p.t.p.i.y.i.i.u.i.p.i.m.b.p.p.p.p.u.r.p.s.a.s.",
"a.p.a.s.V.m.m.b.m.p.m.m.a.s.p.s.p.m.s.m.s.m.s.m.n.m.m.m.m.N.Z.m.Z.N.N.N.m.b.n.p.b.b.p.y.y.y.i.i.i.b.m.b.u.p.p.p.p.p.u.u.u.a.a.p.",
"a.a.s.s.A.m.A.n.p.n.p.s.s.s.p.s.s.s.m.m.s.m.m.s.m.m.N.N.m.m.N.Z.Z.Z.m.m.m.p.b.p.b.b.u.i.y.u.i.y.p.m.t.B.m.u.p.p.a.m.t.u.y.a.t.u.",
"u.s.p.m.p.b.b.b.p.p.p.m.p.a.u.s.p.m.s.m.p.s.m.m.m.N.N.N.Z.m.Z.Z.N.Z.Z.m.m.m.p.p.p.p.i.i.y.y.y.i.b.m.Z.V.b.p.u.p.m.p.r.u.r.y.r.u.",
"a.a.s.s.s.n.b.p.p.b.p.a.s.p.p.p.p.s.s.m.m.m.m.m.N.S.T.N.S.N.N.Z.Z.S.B.m.p.b.p.p.b.i.p.i.y.i.y.u.b.m.N.V.m.m.u.p.p.s.y.r.r.u.r.y.",
"a.a.a.p.p.u.p.p.p.p.p.s.a.p.p.a.p.m.s.s.m.s.s.m.N.N.N.S.N.N.Z.N.N.m.m.p.p.i.u.u.p.u.p.u.u.y.u.m.b.A.B.V.p.p.p.s.S.a.a.r.r.r.r.r.",
"a.u.a.a.p.u.p.p.p.p.s.b.m.p.p.p.p.m.m.m.m.p.m.m.N.Z.S.N.N.N.m.m.m.b.b.p.i.i.u.u.p.u.u.u.t.p.u.p.m.m.m.Z.u.a.p.a.a.r.a.r.r.r.w.w.",
"a.p.p.u.u.u.u.p.b.m.m.p.b.a.p.p.p.m.p.m.m.m.p.m.m.m.m.N.m.m.m.m.m.m.b.p.i.i.i.u.a.p.p.p.p.p.i.s.m.s.s.m.u.t.u.u.r.r.a.r.r.e.e.w.",
"u.a.a.u.u.i.p.p.p.m.m.m.m.b.p.p.p.m.m.b.p.m.p.m.m.m.m.N.m.m.m.m.m.m.b.p.u.u.u.p.s.p.p.p.u.u.p.s.b.s.p.u.r.r.r.r.a.r.a.r.w.r.w.w.",
"r.u.r.u.u.i.u.u.p.p.s.b.p.p.i.p.m.m.m.m.p.b.m.b.m.m.m.m.s.m.s.m.m.p.p.p.u.u.p.s.s.p.p.u.i.u.p.p.p.p.u.u.u.u.a.r.r.r.r.r.r.w.w.w."
};
