/* XPM */
static char *_d60932ab5964a52a14fb30544a0337amI85EeMnVIVue3tY[] = {
/* columns rows colors chars-per-pixel */
"64 64 184 2 ",
"   c #171F4E",
".  c #1C1E4E",
"X  c #16214F",
"o  c #152053",
"O  c #163667",
"+  c #772D4E",
"@  c #703D5C",
"#  c #2C5766",
"$  c #714A67",
"%  c #F54D2D",
"&  c #F94A2E",
"*  c #F44D35",
"=  c #FA4B31",
"-  c #FB4631",
";  c #F75137",
":  c #F5553C",
">  c #CF3C4A",
",  c #D03C4A",
"<  c #BD635B",
"1  c #AC5F65",
"2  c #B25E6D",
"3  c #A3666D",
"4  c #DA4446",
"5  c #C95E4E",
"6  c #D25B51",
"7  c #D95852",
"8  c #EC5942",
"9  c #EB5848",
"0  c #DB645C",
"q  c #E46954",
"w  c #C05F6A",
"e  c #5F975A",
"r  c #7BBC56",
"t  c #7BBC58",
"y  c #438168",
"u  c #5F9468",
"i  c #7C9D70",
"p  c #6BA767",
"a  c #62A967",
"s  c #75B868",
"d  c #70B471",
"f  c #76B974",
"g  c #474285",
"h  c #664288",
"j  c #7F5795",
"k  c #7E58A1",
"l  c #606AB1",
"z  c #7865BF",
"x  c #6273B8",
"c  c #7A79BB",
"v  c #387BDC",
"b  c #3477D7",
"n  c #286FEF",
"m  c #3179E5",
"M  c #3C7DE2",
"N  c #3375E9",
"B  c #347DEC",
"V  c #387AE7",
"C  c #2A67FE",
"Z  c #256DFE",
"A  c #2A6DFE",
"S  c #286EF2",
"D  c #2673FE",
"F  c #2B75FE",
"G  c #2778FF",
"H  c #2D7BFE",
"J  c #2F79F2",
"K  c #3071F1",
"L  c #3175FE",
"P  c #317DFE",
"I  c #397EFE",
"U  c #3779F4",
"Y  c #735FC0",
"T  c #5A6ECF",
"R  c #5E70C6",
"E  c #547BC8",
"W  c #417EDB",
"Q  c #5F7ED8",
"!  c #5378D0",
"~  c #7866C8",
"^  c #6C7DC2",
"/  c #7274C7",
"(  c #7B6FDB",
")  c #617BDC",
"_  c #4879EF",
"`  c #4C7EE1",
"'  c #9B5E8A",
"]  c #815995",
"[  c #925D95",
"{  c #936685",
"}  c #996081",
"|  c #996A89",
" . c #8E749B",
".. c #B06391",
"X. c #805BA0",
"o. c #AA5CB7",
"O. c #BD57BA",
"+. c #BC58BA",
"@. c #8571AC",
"#. c #816FBB",
"$. c #A66DBC",
"%. c #57968E",
"&. c #5B9A89",
"*. c #5C9D9F",
"=. c #64A38D",
"-. c #68A289",
";. c #6DB685",
":. c #65A290",
">. c #599FA1",
",. c #5599A2",
"<. c #4C92B6",
"1. c #539DBA",
"2. c #7C82BE",
"3. c #58A1AA",
"4. c #3A82DB",
"5. c #3780E7",
"6. c #3781EE",
"7. c #3A83EC",
"8. c #3883E0",
"9. c #2F81FE",
"0. c #2F81FE",
"q. c #3A85F6",
"w. c #3083FB",
"e. c #3685FB",
"r. c #3080FD",
"t. c #3381FD",
"y. c #3282FD",
"u. c #3181FE",
"i. c #3180FF",
"p. c #3280FE",
"a. c #3381FF",
"s. c #3281FF",
"d. c #3183FF",
"f. c #3383FE",
"g. c #3282FF",
"h. c #3482FF",
"j. c #3682FE",
"k. c #3184FE",
"l. c #3484FD",
"z. c #3584FD",
"x. c #3687FD",
"c. c #3585FE",
"v. c #3685FE",
"b. c #3483FE",
"n. c #3882FF",
"m. c #3887FE",
"M. c #3986FD",
"N. c #3986FD",
"B. c #3788FE",
"V. c #3788FE",
"C. c #3889FE",
"Z. c #3A89FF",
"A. c #3B88FE",
"S. c #398AFF",
"D. c #3B8BFE",
"F. c #3A8BFF",
"G. c #3A8AFC",
"H. c #3D89FE",
"J. c #3B8CFF",
"K. c #3C8CFD",
"L. c #3E8EFD",
"P. c #3D8DFE",
"I. c #3E8FFE",
"U. c #3B8AFE",
"Y. c #3F90FD",
"T. c #4992C3",
"R. c #4488DA",
"E. c #5582D7",
"W. c #4795D7",
"Q. c #4B91DF",
"!. c #489EDB",
"~. c #7185C4",
"^. c #4184E9",
"/. c #4885E1",
"(. c #4593E3",
"). c #499BE5",
"_. c #4087F1",
"`. c #4084FF",
"'. c #418EFE",
"]. c #4191FE",
"[. c #4391FE",
"{. c #4897FC",
"}. c #4799FC",
"|. c #4A99FE",
/* pixels */
"F F F L P H F P P L P L P P P P F F Z Z Z Z Z F H J F F v.P H i.n.P j.j.v.j.P j.P P i.v.M.M.n.P H H P H P P P H F F F F F F L A ",
"F F F H F P P P F P F H P P P P P Z Z C Z Z Z A F F F P v.M.v.i.P j.r.t.G.j.P M.i.P i.G.i.G.M.i.F H P L F P H L F H F F F F F L ",
"F F H H H P P H P J H H M.n.P n.F F Z Z C A F F H H P j.G.G.j.i.j.v.v.v.G.K.I.i.i.r.P r.j.P P H H F H P P P L F F F H F H L L F ",
"F F F F H L i.P P H P i.H.G.q.A.F D Z Z Z Z F H H H i.i.v.v.v.v.v.i.v.v.G.G.q.v.j.r.P H H P P H F H H P P L H F F F H H H L L P ",
"F F G H H H i.i.f.i.f.f.q.I.G.H D H F Z D H f.H P i.i.v.G.].G.B.G.G.B.B.I.I.G.i.i.P i.P i.P H H F F F H H P H F F H F H L L P L ",
"F G F H H 0.i.0.v.i.f.B.I.Y.G.H H F D F P F 0.e.P t.v.K.I.B.B.}.H.G.B.S.G.B.f.i.v.j.P r.i.H L H F F F F F H F F F L P P P P L L ",
"G F F F H H i.f.0.f.f.v.Y.].v.i.H D F F F P V.e.e.e.B.Y.L.L.G.Y.K.G.x.e.v.v.f.v.i.i.j.P i.P P H F G F F F F L L P L L P n.L H F ",
"G F F F F H B.f.k.0.f.v.B.M.G.H F G D F F P k.0.i.0.Y.K.'.L.L.q.B.v.x.f.v.f.f.B.v.i.P i.r.H P H F F G F F L H F L P j.q.i.P H L ",
"F H H H F H 0.0.0.f.i.r.G.K.f.0.H G F F F H H 0.i.v.B.v.I.Y.K.K.B.i.B.i.f.f.B.v.j.i.0.i.i.r.P H F F F F F F F F H i.P i.P H F F ",
"H H P r.H H H 9.0.f.i.e.i.v.i.H F F F G H H H H H H G.G.I.K.B.f.v.i.r.0.B.K.G.G.i.j.i.0.H P H H 0.F F F F F F G P H r.P H H F F ",
"P r.v.i.0.H H 9.i.i.i.r.0.i.i.H F D D F F F H F H 0.Y.I.K.f.G.i.r.H i.e.v.G.[.G.f.i.0.P i.H H 0.F H F Z Z P Z Z P P i.P F H P F ",
"P t.i.i.H H H H 0.P P H H H 0.F D F F F H H H H 0.Y.].G.G.G.v.H w.H 0.f.B.|.].M.q.i.f.H i.0.0.H H F Z Z Z S Z Z P P e.P H F L P ",
"P P j.H H H F H H P P H H H H F F F Z F H H H H i.r.}.}.G.G.j.G.r.H r.e.K.K.G.'.B.f.r.P H i.H H H D D Z Z Z Z S U H.P n.U F F P ",
"H H H H F G G F H H H H P P H F Z F F F L H P P 0.P G.G.L.e.i.P i.i.i.i.K.G.B.H.G.B.P i.0.H H G G D D Z Z Z Z Z H.'.P n.n.F A P ",
"H G F G G F F G F F H H H J H F Z Z A H H P i.i.P v.i.j.i.i.i.f.i.i.i.v.B.B.K.Y.M.v.i.P H H F F D D D Z D Z F F P P q.H.n.A L L ",
"F F F F G G F F H H H P L H F Z A F F F H i.j.P H P i.i.i.j.v.i.r.i.v.f.v.K.K.G.v.j.j.P P F H F G D D Z D D F F H P I U P F F P ",
"0.0.H F G H H H H P P H P F A Z A F F J L P P t.P P P M.i.v.f.f.B.f.f.f.f.v.G.v.v.v.j.i.P H H G G D D G G F H G F 0.H v.i.L L P ",
"H j.P H H H P r.H P P P F F A K F A L H H P n.P n.I M.e.j.j.v.v.B.B.f.i.i.P v.v.j.i.P i.H H H H G G G G H H 9.H H H P i.P P L H ",
"f.q.P P H r.P r.i.H L L F A A F A A F L L P P P P A.I.B.G.v.B.B.x.0.f.f.f.i.i.j.i.j.j.i.i.P 9.G G G G G H 0.H 0.H H H P P P L H ",
"e.H i.H H H H H P H H F F A F F F L L L P r.^.7.T W q.v.v.G.v.K.B.k.v.i.f.f.f.0.i.i.i.i.P P H H G G G 0.0.0.0.0.H 0.H P L L L F ",
"v.Y.H H H H H H H H H F F ; [ K F N ] , > > > , , > , , e.B.B.v.B.B.x.e.j.i.f.i.f.i.i.i.P H H F G 0.0.0.9.9.0.f.H P j.L P L H L ",
"H H H H H H H H F F F H H = & & 4 , > , > > , , ,   $ , | K.G.v.B.B.B.G.q.q.v.v.f.J (.,.&.;.s =.T.G G 0.0.9.0.f.f.i.P L L P L P ",
"H 0.H r.0.H H 0.P P H P H = & w ! | , , , , , , > @ , > R v.v.G.v.I.W % & 3 &.t t t t t t t e # r t 0.0.G 0.0.0.v.H P I P P P P ",
"H 0.r.i.r.r.P r.P P r.I.t.M.i.i.i.H H P L 8.] ] { j ~.q.G.B.I.I.G.H.v = % % t t t t t t t t # o r r 0.G 0.0.G 0.P P P P I P P P ",
"i.M.j.j.B.e.v.H.v.G.I.I.].r.P G.r.P H H P i.v.M.G.H.G.K.H.L.e.G.M.G.M } ^.M.v.5.>.d t t t t t t r T.G 0.0.H i.P P P P U j.P j.P ",
"P G.G.q.H.M.v.t.f.q.'.'.'.v.q.G.e.P H H i.v.G.G.K.K.K.I.].L.].'.I.G.G.M.M.G.G.G.f.f.v.i.i.q.H H G G G 9.w.i.0.i.P P n.P P j.P P ",
"v.j.A.[.'.I.B.r.i.I.H.|.I.r.v.].q.P r.t.i.j.M.G.M.I.G.I.].'.}.[.'.G.G.G.I.v.j.M.f.e.v.B.i.].H H F G H w.G.K.v.j.n.P P t.P P P P ",
"P n.H.M.H.I.e.f.v.M.I.H.I.I.i.B.P r.H e.j.v.v.G.G.G.G.I.[.[.'.I.].I.I.G.r.v.I.B.f.Y.f.B.e.v.i.H G H 9.}.f.B.j.v.P H.P I P n.F L ",
"P n.v.M.v.v.f.v.M.'.M.6.R.).3.!.N I.i.P e.v.v.v.H.I.H.H.].H.G.G.L.I.I.q.j.G.B.v.G.].Y.0.B.q.H H H H 0.0.e.t.'.G.q.L I P n.P P F ",
"P P j.= 9 @.B %.t t t t t t t y t t P v.e.e.j.v.M.'.'.H.q.I.Y.B.e.B.I.f.q.v.H.'.G.Y.K.f.B.H 0.H 0.0.i.H.P m E.~ z z ~ Q.q.H.`.F ",
"P i.i.= = % i t t t t t t t a X t t 3.i.v.v.j.G.'.'.'.I.I.G.B.f.v.B.B.K.'.H.q.M.q.i.v.f.H H % * ' ) +.+.O.O.O.O.O.o.h O.O.U P L ",
"P 0.i.% 2 E.I.1.d t t t t t t t t t e.G.M.v.v.G.M.'.'.].I.B.B.G.v.v.G.q.'.'.'.[.G.H P F r.P & & = +.+.+.O.O.O.O.O.g . O.O._ L I ",
"0.P P j.v.H.H.H.H.M.H.G.q.m B m i.v.j.G.v.M.B.x.'.L. .^.q.v.e.q.W.=.f t t t t t =.F F i.j.H 6 ^ j.j.4.#.O.+.+.+.O.+.O.+./ L L L ",
"F P i.n.v.q.I.H.H.H.H.H.H.v.j.i.j.P j.i.v.G.v.I.q.I.q 8 : < t t t t t t t t   u t f H H H F r.t.M.M.P j.v.j.j.q.M.j.j.n.P L P L ",
"i.M.M.M.'.M.H.G.H.G.M.H.I.v.j.v.H H i.G.j.G.I.I.L.H.q : ; 3 t t r t r t t t O p t -.H F F H H M.H.M.n.M.j.H.M.P P P M.j.P L L L ",
"P P j.j.n.G.M.G.H.H.M.H.G.H.r.H i.i.v.P i.G.I.G.K.'.2.Y.I.K.i.v.8.3.-.t t t t s <.P F D F H G.M.H.H.H.P j.M.I.v.j.v.M.A.n.I L C ",
"L P j.H j.n.H.M.M.M.I.G.Y.B.P P v.e.r.v b b H.G.G.L.K.q.I.M.v.H.n.'.'.[.G.G.v.P j.H H F F F L n.H.H.'.'.q.H.G.j.q.e.'.A.U '.I A ",
"P P j.i.i.i.A.H.G.- 0 ~.Y.Q $.+.+.+.+.+.+.+.O.+.q.I.K.I.H.M.n.H.t.[.H.].v.j.H.M.i.L F G F L P A.[.].L.H.{.H.G.v.v.n.'.{.[.I L `.",
"P P H P i.v.j.f.i.= = & ..+.+.+.+.+.+.+.+.X o.O.~ I.K.K.I.'.M.j.t.'.'.I.H.'.j.n.n.L F F G G F P '.'.'.'.L.A.P n.v.v.'.A.A.H.I C ",
"P i.P i.i.i.j.i.i.& 8 @.0.~ +.+.+.+.+.+.+.+.O.+.q.I.G.G.H.M.H.n.H.t.v.G.q.q.t.e.M.t.F Z D D F P H.'.M.[.'.H.q.j.G.G.A.n.P U n.A ",
"P P P P i.v.i.j.f.f.0.0.0.0.i.i.i.e.v ).( Q.6.G.B.K.K.G.M.G.G.M.e.H.G.G.n.G.H.v.P P F G Z D D n R.B n.q.q.P P i.j.j.j.P P P L C ",
"P P P L P P i.v.f.0.0.0.0.0.i.i.P e.M.f.i.i.i.B.G.M.G.v.G.v.G.v.G.v.G.K.G.6 7 c i.8.{ > , , , , , > > , 7.P i.j.i.j.j.P P P F L ",
"P L P P H P P i.0.0.9.9.0.H 0.i.i.i.j.j.i.i.r.j.v.v.v.v.v.M.v.v.M.G.G.I.v.6 - - 5 , > > , , , > , o + > > P P P P P P i.P L L P ",
"L F L H H P H H 9.9.H H H H H P P P L i.r.P P i.i.j.v.j.i.v.M.G.v.G.v.j.n.6 * | B x > > , , , > , , > > l P P L P j.i.H P P H.I ",
"L F H H L F H H H H 9.9.H H F H F P P L P P P r.i.P i.i.i.i.B.M.G.v.v.v.M.j.n.n.n.L F D Z n v 4.] E m H P P P P I P j.P P P P I ",
"H H L H H H H F H H H H H H F F H H P P i.i.j.i.P i.j.P P v.j.v.v.v.v.M.A.H.H.P n.j.F F D D D F F H F H H P P P I P P P I P I I ",
"L H L P j.H F F G H 9.H G G F F F H H H r.H i.i.j.i.i.j.K.f.G.v.j.v.v.i.j.i.i.t.t.n.L F D Z G F H F H F H P L L P P P P P L I I ",
"P P P j.G.P P H H H H F F G F H F H H H r.P j.j.M.G.M.M.I.G.M.v.v.i.j.j.M.P r.r.P P P F Z D D G F F H H H F H F H L H L L L I I ",
"I P n.'.M.M.P H H H H F G G F H F H H H H P P q.L.H.{.H.G.I.v.v.i.j.v.i.i.H P j.H P H D D D G G G H H H F D A F F F L F L L P L ",
"P j.j.q.G.G.v.v.i.i.H H F H H H H H F H H P i.v.].'.'.'.H.v.v.v.G.j.r.i.i.P v.H H H F D D G G G G H F G A F Z F F F F F H F L H ",
"j.P P H.I.I.].B.v.P H H H H H H P H H P H P i.e.G.I.H.G.G.M.v.G.v.G.e.M.M.B.H P H H F D D G G G G G H F F F F F F F F F F L P P ",
"P P i.G.K.Y.w.f.f.P H H H P H i.i.H P P P P i.G.I.G.G.I.v.v.v.v.G.I.L.v.L.].0.0.H H F D G D G G G G G G D F F F F F A F L P I P ",
"L L P P r.q.f.e.H i.P P H H H P P i.i.r.P i.P G.H.G.I.G.v.v.v.M.G.G.M.G.q.B.i.0.H J G G F G G G G G G G F G L P F L A A L P P L ",
"H L H i.f.v.f.i.r.P P P H P P P P i.r.i.i.i.i.v.G.B.B.B.B.v.v.M.G.M.v.v.r.r.i.0.0.H H F D H G F G G G G G H H P L F F F F I I P ",
"L L H H i.f.i.i.r.i.P n.P P H H P i.i.i.j.i.j.v.v.M.M.v.v.v.v.M.M.B.v.j.i.i.r.H i.H H G G D G G G G 9.G i.H H P H H A A P r.P P ",
"H H L P B.f.f.0.i.P j.P P P i.H P i.v.j.i.j.j.r.i.M.v.v.v.G.M.G.G.M.M.v.r.r.0.P 0.H G G D G G G H G f.f.H H H H H H F F F L L L ",
"L L P P Y.i.G.0.P r.i.H P P F P P P i.i.i.j.i.i.v.i.M.M.v.v.G.G.G.G.v.v.i.i.H H 9.0.H G D G D G H f.H f.f.F F H P P F S F F F F ",
"L L P P H e.0.0.P H H i.P H L P P i.i.j.P P j.P v.M.M.A.v.v.M.K.M.G.M.G.v.H 0.H H H G G D D G G 9.f.G.B.0.H F H P H A A F F A F ",
"L L P P P r.0.H H H H L P F F H H P i.P i.i.j.v.M.M.H.H.H.M.G.M.G.M.v.i.0.H F H H H H H D D F F 0.v.G.K.i.i.H J H P F F A F A F ",
"P F P H H H H H H H i.P L P H P P P i.i.i.j.i.v.M.G.M.I.j.M.v.v.M.v.i.0.F G H F H F G F G D F P i.G.G.q.P H L P '.H L C A A Z A ",
"L L H F H F F H H H P i.H H H P P H i.j.P i.i.f.v.M.G.M.M.M.j.j.v.f.0.H G G G F H F F F H F F H v.v.v.G.F P F L L L L A A A C C ",
"L L L F F F F 9.0.i.v.0.i.P H H P r.i.v.i.i.i.f.j.v.v.M.v.v.i.v.i.i.0.H F G F F H H H H F H H P P i.P P F F F F A A L A A Z C C ",
"F L L F F F F H H i.i.i.0.9.H H H B.v.i.0.i.i.f.f.f.j.v.v.j.i.j.f.i.i.H G F F 0.P L H F F G H P P i.H F F A A A F C A A C Z C C ",
"A F A F F G F H H P P 0.H H H F i.i.f.i.i.i.i.i.i.i.v.j.i.i.j.i.i.i.H H F F F P P H H H G F H H H H F F F F A L A A C L A C C A "
};
