/* XPM */
static char *b77b445d63284633a4a685c403650fd0VNqKFISnRdjRwxc8[] = {
/* columns rows colors chars-per-pixel */
"64 64 212 2 ",
"   c #19355C",
".  c #253D5F",
"X  c #1C3E73",
"o  c #193968",
"O  c #1D4174",
"+  c #1D437C",
"@  c #21467C",
"#  c #20537E",
"$  c #344B6D",
"%  c #1E4582",
"&  c #1D478B",
"*  c #1E4B8D",
"=  c #1F4886",
"-  c #1E4A92",
";  c #1D4B97",
":  c #234B85",
">  c #224D8B",
",  c #2E5080",
"<  c #325C8E",
"1  c #214E93",
"2  c #204F9D",
"3  c #235194",
"4  c #24559C",
"5  c #295292",
"6  c #0B6192",
"7  c #0D699A",
"8  c #1A638C",
"9  c #2B6798",
"0  c #34739B",
"q  c #3A6293",
"w  c #1F52A3",
"e  c #1F55AD",
"r  c #2354A3",
"t  c #265AA5",
"y  c #285AA4",
"u  c #265BAC",
"i  c #295DAC",
"p  c #2256AC",
"a  c #255CB4",
"s  c #255EBE",
"d  c #285FB6",
"f  c #086CA0",
"g  c #0274AD",
"h  c #0D75AC",
"j  c #1376AB",
"k  c #1D77AB",
"l  c #0176B2",
"z  c #0279B4",
"x  c #027DBB",
"c  c #147CB4",
"v  c #1A7DB6",
"b  c #2860AD",
"n  c #287BAC",
"m  c #3E7CA9",
"M  c #2B63B4",
"N  c #2A64BB",
"B  c #2A66BD",
"V  c #3165B1",
"C  c #2B7CB3",
"Z  c #3B70BE",
"A  c #475F83",
"S  c #466894",
"D  c #496887",
"F  c #617C97",
"G  c #406FA7",
"H  c #417CA7",
"J  c #4B7FA6",
"K  c #447AA7",
"L  c #4576BC",
"P  c #265EC0",
"I  c #027FC1",
"U  c #2662C4",
"Y  c #2965C5",
"T  c #2C69C4",
"R  c #2966CB",
"E  c #2C6CCB",
"W  c #2765CA",
"Q  c #316FC8",
"!  c #2F70CE",
"~  c #3775C5",
"^  c #3071CD",
"/  c #3972C3",
"(  c #2B6BD3",
")  c #2C6EDB",
"_  c #256DDC",
"`  c #2E70D2",
"'  c #2D72DD",
"]  c #3374D4",
"[  c #3175DC",
"{  c #3479DC",
"}  c #3679D6",
"|  c #2B6FE2",
" . c #286EE8",
".. c #2D73E3",
"X. c #2670EB",
"o. c #2D75EC",
"O. c #2F78EC",
"+. c #337AE4",
"@. c #337BEC",
"#. c #3478E7",
"$. c #2A67FE",
"%. c #256DFE",
"&. c #2A6DFE",
"*. c #2B75F4",
"=. c #2E7AF5",
"-. c #2673FE",
";. c #2B75FE",
":. c #2778FF",
">. c #2D7BFE",
",. c #2572F4",
"<. c #327CF4",
"1. c #3176FE",
"2. c #317DFD",
"3. c #397EFE",
"4. c #4176C4",
"5. c #0080BE",
"6. c #1F80B7",
"7. c #3D82B1",
"8. c #348AB9",
"9. c #58819F",
"0. c #6A849D",
"q. c #4E84AC",
"w. c #5685A9",
"e. c #4B87B2",
"r. c #5B8BB1",
"t. c #688CAE",
"y. c #628CB2",
"u. c #6391B5",
"i. c #7497B9",
"p. c #0384C4",
"a. c #0487C9",
"s. c #058ACA",
"d. c #0C8CCD",
"f. c #0B88C5",
"g. c #128DCC",
"h. c #138AC7",
"j. c #128ED1",
"k. c #1791D3",
"l. c #1C92D3",
"z. c #2393D3",
"x. c #2A97D4",
"c. c #2A98D8",
"v. c #3399D7",
"b. c #3197D9",
"n. c #3599D8",
"m. c #3B9CDA",
"M. c #389AD7",
"N. c #3789C1",
"B. c #3C81E4",
"V. c #3580EC",
"C. c #3A83EC",
"Z. c #3680E1",
"A. c #2E81FE",
"S. c #3581F5",
"D. c #3A84F4",
"F. c #3C8AF5",
"G. c #3482FE",
"H. c #3985FD",
"J. c #3688FD",
"K. c #3C8AFD",
"L. c #3F90FD",
"P. c #518DC9",
"I. c #4A96C8",
"U. c #4396C6",
"Y. c #4C89DB",
"T. c #449CDA",
"R. c #5793D3",
"E. c #6A96C3",
"W. c #7199C6",
"Q. c #46A1DA",
"!. c #4CA1DD",
"~. c #4BA0D6",
"^. c #54A4DC",
"/. c #75ABD7",
"(. c #418DFD",
"). c #4188F6",
"_. c #4391FE",
"`. c #4895FE",
"'. c #4999FE",
"]. c #4E8EE6",
"[. c #6498E1",
"{. c #51A6E3",
"}. c #56A9E4",
"|. c #5BABE4",
" X c #4CA5E1",
".X c #61ADE6",
"XX c #68ABE6",
"oX c #71A3E2",
"OX c #67B0E7",
"+X c #6AB1E6",
"@X c #6CB3EA",
"#X c #64B1E9",
"$X c #7CB5E7",
"%X c #73B5EA",
"&X c #79B7EB",
"*X c #7CBAEC",
"=X c #76B7EA",
"-X c #71B6F1",
";X c #81ACD9",
":X c #81B4DF",
">X c #86AACA",
",X c #83BCEB",
"<X c #8ABFEC",
"1X c #87B8E3",
"2X c #8DC1ED",
"3X c #95C6EE",
"4X c #99C8ED",
"5X c #8AC2F1",
"6X c #9CC9F1",
"7X c #A1C7EE",
"8X c #A2CCEC",
"9X c #A0CCF3",
/* pixels */
";.;.;.1.2.>.;.2.2.1.1.1.>.2.2.>.;.;.-.%.%.&.%.;.;.=.;.;.H.G.2.2.G.2.G.G.G.H.2.2.2.G.A.G.J.H.H.2.>.>.2.2.2.2.2.>.>.;.;.;.;.;.1.&.",
";.;.;.>.;.2.2.2.>.1.;.;.G.G.2.2.1.&.&.%.$.%.&.;.;.>.1.2.G.J.G.G.G.2.G.G.K.G.3.H.2.2.>.K.G.K.G.2.;.>.>.1.;.2.;.1.;.>.;.;.;.;.;.1.",
";.;.>.>.>.2.2.>.2.=.>.>.H.H.2.H.-.;.%.%.%.%.&.;.;.;.2.G.J.K.G.G.G.G.G.G.K.K.K.G.G.2.>.G.2.2.G.2.;.>.>.G.2.2.>.;.;.;.>.;.;.1.1.;.",
";.;.;.;.;.1.G.>.2.>.G.G.K.K.H.H.;.-.&.%.%.%.-.2.>.>.2.G.G.H.J.J.G.G.J.H.K.K.J.G.G.G.>.2.2.2.>.>.;.>.>.1.G.1.;.1.;.;.>.>.>.1.2.1.",
";.;.:.>.>.>.G.G.G.A.G.G.H.K.K.>.:.>.-.&.-.=.A.S.G.G.G.J.J._.K.J.K.J.J.K.K.L.J.G.G.2.G.>.G.>.>.>.>.;.;.>.>.2.;.;.;.>.>.1.1.1.2.1.",
"-.:.;.>.;.A.A.A.G.G.G.J.K._.K.>.>.;.-.;.>.;.G.A.A.A.J.K.K.J.J.L.K.J.J.J.K.K.G.G.G.2.>.G.2.>.2.>.;.;.;.;.>.>.;.;.;.1.2.2.2.2.1.1.",
";.>.;.;.>.>.A.G.A.G.G.J.K.L.J.G.>.-.;.-.>.2.J.A.G.A.J.K.D.F.F.L.J.J.J.G.J.G.J.G.G.G.2.2.2.2.2.>.;.-.;.>.;.;.1.>.1.2.1.2.G.2.>.;.",
"-.;.;.>.>.>.J.G.J.A.G.J.J.K.J.>.;.;.-.;.>.>.J.A.A.S.F.C.C.C.Y.U.].J.J.G.G.J.G.J.G.A.G.G.G.>.2.>.;.-.;.;.;.;.;.1.>.2.G.H.2.2.>.1.",
";.;.>.>.;.>.A.A.A.A.G.A.J.K.G.A.;.;.;.:.;.>.>.>.>.S.V.#.+.B.z 1X%X=.J.2.G.G.J.G.G.G.G.A.G.>.2.>.>.;.-.;.;.;.;.;.1.2.>.G.>.2.;.;.",
">.>.G.G.>.>.>.A.A.A.G.G.G.G.G.A.>.;.;.;.>.>.>.>.*.=.+.} ] V a.^.%X..=.A.J.K.K.K.G.G.G.>.>.G.>.>.2.;.;.=.;.;.;.;.2.>.G.2.>.>.;.;.",
"A.G.G.>.A.>.>.A.G.2.A.2.>.G.A.>.;.;.;.;.>.;.;.=.*...{ ^ B G a.!.&X[.=.G.J.J._.J.G.G.A.G.>.>.>.A.;.>.-.&.%.2.%.%.>.2.G.2.;.>.1.>.",
"2.2.G.G.>.>.>.>.A.G.2.>.A.>.2.-.-.-.;.;.>.>.;.>.O.Z.~ B V w.z d.T.:X=.G.H.'._.J.J.A.G.>.G.A.A.>.;.;.%.%.%.,.%.%.2.2.J.2.1.;.;.=.",
">.G.G.2.>.;.>.:.>.2.>.1.>.>.;.;.-.;.-.;.>.>.;.=.O._ ~ V t J x g.!.+X*.<.K.K.J.(.J.G.G.>.2.>.A.>.>.-.-.%.%.%.%.%.1.H.3.H.2.1.;.2.",
">.>.>.;.>.;.:.>.>.>.>.>.2.2.>.;.&.-.&.;.;.>.>.=.X.( B t 1 k p.p.T.|.R.G.K.K.K.J.K.G.2.2.A.>.>.:.:.-.-.%.%.%.%.%.).(.2.3.H.;.;.1.",
">.:.;.:.-.;.:.;.;.;.;.>.>.>.>.;.-.&.-.;.>.1.2.<...( M 2 $ g p.a.M.|.$X<.J.K.K.L.G.H.G.G.2.>.;.;.-.-.-.-.-.%.-.;.2.G.F.K.3.&.1.=.",
">.;.;.;.:.:.>.;.>.>.=.2.2.>.;.-.&.&.;.>.>.G.=.o...U e - w.g p.f.m..X%Xo.G.K.K.K.J.G.G.1.>.;.>.;.:.-.-.%.,.;.;.;.>.2.2.2.3.;.;.1.",
">.A.=.;.:.;.>.A.;.>.2.>.>.;.&.&.;.&.;.1.1.1.<.O.( P r > G g 5.d.M.|.@XXXS.G.J.J.G.G.G.A.>.>.>.:.:.-.-.-.:.;.>.>.:.>.>.J.G.;.1.1.",
">.G.2.>.>.>.2.2.G.>.G.1.;.;.&.&.&.;.;.;.>.<.<...( a 4 S m g p.d.m.XX+X>X>.2.H.G.G.G.2.G.>.A.>.>.:.:.:.:.>.:.A.>.>.>.>.G.2.2.2.1.",
"G.H.2.>.>.A.A.G.2.2.1.;.;.&.;.&.;.&.;.1.;.1.o.| W a 3 0.m x p.j.T.+XOX4X<.2.G.G.G.G.G.2.G.2.>.>.A.:.:.:.A.A.A.>.>.>.>.1.1.2.2.;.",
"J.2.G.>.>.>.>.=.A.>.1.;.;.&.;.;.1.1.1.=.1.<.o.) U r & t.h x a.l.^.%XOX,X=.<.A.A.G.2.G.G.>.2.>.>.:.:.:.A.A.A.A.A.A.>.A.2.2.1.>.1.",
"G.L.A.>.>.>.>.>.;.>.>.;.;.;.1.;.>.2.1.1.<.*.o.( a ; @ q.g x s.x.XX,X.X$X/.S.G.A.G.G.>.G.G.>.;.>.:.:.A.A.A.A.A.G.2.2.3.2.1.>.1.>.",
">.:.>.>.>.>.>.;.;.>.>.>.2.>.2.>.2.>.>.>.*.o.| P e * 0 q.g I d.v.1X2X@X=X4XZ.S.G.G.A.>.G.G.G.>.:.A.:.:.A.A.A.A.A.G.1.2.2.2.1.1.1.",
"A.>.>.G.>.>.A.A.>.>.>.2.2.2.G.2.2.2.2.=.1. .( P 4 0 9 K l p.d.v.6X3X@X=X4X9XS.G.G.G.G.G.G.G.A.>.>.:.A.A.:.A.A.A.G.>.2.2.2.2.G.2.",
">.G.>.A.G.G.>.G.2.2.G.K.D.G.G.G.2.>.1.1.o.| R d < 7 8 m l p.d.v.7X2X%X=X4X5XS.J.G.G.A.G.G.G.G.:.:.A.:.A.A.A.A.A.2.G.2.2.3.2.2.2.",
"G.G.G.G.J.J.H.H.G.K.K.(._.2.G.J.G.>.=.=.*.) Y u n # . m g a.d.z.6X<X@X@X3X@X4.J.J.G.A.G.G.G.G.>.:.:.:.A.A.>.2.2.2.2.1.2.G.H.2.2.",
"2.H.K.K.K.J.G.J.G.K._.(.(.G.K.H.J.1.=.*.O.' T a 5 +   m l d.s.c 2X4X@X%X3X+.@.K.G.G.G.G.A.J.=.A.:.:.:.A.A.G.G.G.2.>.H.2.2.2.2.1.",
"H.H.H._._.(.J.G.G.K.K.'.K.J.J._.G.=.>.>.O.' T a 1 + o q.g a.z 8.<X9X%X*X3X+.<.H.A.J.J.J.G._.>.>.:.>.A.J.J.K.G.G.H.1.2.H.2.2.2.2.",
"2.H.K.H.K.K.G.G.H.J.).K.K.K.G.K.G.G.>.G.@.+.( M 4 % o q.l x f I.*X9X%X*X4X+.F.D.G.L.G.J.G.G.A.>.=.:.A._.A.K.3.H.1.(.2.G.2.H.>.1.",
"2.3.J.G.J.J.G.J.J.(.H.J.H.K.G.G.>.K.2.=.S.+.` B t = O q.h l 6 I.=X=X@X*X8X+.G.G.K.L.L.A.J.K.>.>.>.;.A.A.H.H.(.H.H.2.3.2.H.2.2.;.",
"2.2.G.G.G.G.G.H.J.H.J.H.G.J.H.K.H.G.G.G.S.@.' Y t * O w.h g 6 I.-X#X@X*Xi.=.F.).F.L.K.G.G.>.A.;.A.A.G.K.2.H.2.H.F.2.1.`.H.H.).;.",
"2.G.G.A.J.J.J.H.K.H.G.K.G.H.G.J.H.K.G.G.G.@.' E M 3 O y.j l h 8.*X@X@X*XoXC.D.G.J.2.G.G.>.>.2.G.>.G.G.H.G.H.H.G.3.K.3.1.1.1.1.1.",
"1.A.G.A.J.J.(.K.H.(.G.(.K.G.G.G.J.G.J.J.J.S.+.! a 5 @ i.n z f.P.=X@X@X,X} ).).(.H.>.2.-.J.A.>.2.G.J.G._.H.H.3.D.3.H.2.3.3.1.1.3.",
"2.2.2.G.H.K.(.K.(.H.(.H.K.G.H.G.G.G.H.J.G.S.O.! B 5 @ D n x l.M..X@X-X<X#.).F.H.J.1.>.2.G.>.2.G.G.2.G.H.K.2.H.1.3.(.H.2.1.1.1.3.",
">.2.2.H.G.H.(.K.H.K.K.K.K.H.G.G.G.1.G.G.G.D.+.} M 4 : $ 7.5.g.Q.}.@X%X<XC.).H.K.G.2.>.>.2.;.G.G.H.H.2.G.H.2.H.H.H.G.2.H.1.1.3.&.",
"2.H.H.H.(.H.K.K.K.H.H.K.(.H.G.G.2.2.G.J.G.K.C.{ B y : O 7.x d.Q.}.@X%XW.#.<.).G.G.2.2.;.;.>.2.H.H.H.H.H.H.H.H.2.H.2.H.H.1.3.1.&.",
"1.G.G.G.H.H.H.J.K.).K.K.K.J.G.>.G.G.G.A.A.D.C.[ Q b > + e.x h.Q.{.@X*X4.<.2.3.H.G.2.>.-.-.>.G.J.(.(.H.2.H.K.K.H.H.G.H.H.H.3.1.&.",
"2.2.G.2.G.G.K.H.H.H.K.K.L.J.2.G.G.G.H.G.G.S.C.{ Q i 5 O u.x h.M.{.@X*XB.D.D.H.2.2.1.;.;.;.>.2.G.H.(.(.(.H.(.K.G.H.H.(.H.<.(.3.$.",
"2.>.2.2.2.G.H.(.J.H.K._.L.G.>.>.>.J._.G.G.2.=.+.^ b 3 + F z g.m.{.+X2XB.<.3.H.J.G.1.;.:.;.1.1.J.`.(.(.K.`.H.J.G.G.J.K.`.`.3.1.).",
"1.2.2.2.A.G.G.G.A.G.G.K.G.>.J.;.G.G.J.G.G.G.S.Z.] M 4 + A c a.M.{.%XW.B.F.F.H.D.G.1.;.;.-.;.;.2.(.(.(.(.(.).2.H.H.J.H.).H.(.3.$.",
"G.G.>.G.G.G.G.G.G.G.A.G.A.A.A.>.2.G.G.G.G.A.S.@.} B t = X 8.a.c.}.=XZ #.D.G.H.G.H.G.;.-.-.-.;.G.K.(.H._.L.K.H.G.J.K.H.H.3.1.2.&.",
"2.2.2.2.G.G.G.G.G.G.A.A.A.A.2.G.G.G.G.G.J.G.J.@.[ Y y * O 7.p.b.|.*X+.D.G.K.K.G.G.2.;.,.-.%.-.-.G.G.H.G.H.2.2.G.H.H.H.2.1.2.1.&.",
"G.1.2.1.2.2.G.G.G.A.A.A.A.A.A.G.2.J.H.G.G.G.<.V.+.T u * + e.p.M..X,X+.D.K.H.G.G.A.>.;.-.%.%.-.;.>.H.G.G.2.2.G.2.2.G.2.2.G.1.;.;.",
"2.1.>.2.1.2.>.G.A.A.A.A.A.A.A.G.G.G.G.G.G.2.2.<...R a 1 = r.p.m..XE.V.F.G.G.G.G.G.>.-.-.,.-.-.>.;.2.>.2.>.2.2.2.2.2.2.2.2.2.2.1.",
";.>.1.>.>.>.2.>.A.A.>.>.>.>.;.A.>.2.1.A.2.>.2.=...( a 2 & 9.x Q.OX/ O.S.G.J.G.2.G.>.>.-.-.-.;.>.>.>.;.>.>.2.2.2.2.G.G.2.2.1.(.3.",
">.>.1.>.>.>.;.>.>.>.A.A.>.>.>.>.>.2.2.2.>.>.2.=...( s w - q 5.^.%X..D.<.G.G.G.H.G.2.;.-.-.-.;.;.;.>.>.>.2.2.2.2.G.2.2.3.2.3.2.3.",
";.1.>.>.1.;.>.;.>.>.>.>.:.>.;.;.>.>.1.>.G.2.G.<.o.) s w ; S 5.^.=X+.<.G.H.(.K.2.H.G.;.;.-.-.-.;.;.;.>.;.>.2.2.2.3.1.H.2.2.2.3.1.",
"1.1.1.2.G.>.>.;.>.>.A.>.:.;.;.;.>.>.>.>.2.2.>.<.@.) U u 4 > x }.W.#.G.G.G.G.G.A.G.3.1.;.&.-.-.:.>.;.>.:.>.2.1.1.2.2.2.2.1.2.3.H.",
"1.G.2.G.K.2.>.A.>.:.>.>.;.:.;.;.;.>.;.=.2.2.A.S.#.[ T a t t x |.[.#.<.G.H.2.2.G.2.2.2.-.-.%.-.-.;.;.>.>.;.;.>.;.>.1.;.1.2.1.3.3.",
"G.G.H.).J.G.G.>.>.G.;.>.:.:.;.>.;.;.>.>.>.2.>.S.C.{ ~ M t i x |.L <.S.>.2.>.2.>.>.G.>.-.-.-.:.:.:.>.>.>.;.;.&.;.;.1.1.;.1.1.2.>.",
"2.G.G.H.K.K.G.H.G.>.>.>.;.>.>.>.=.>.>.>.>.2.A.D.C.{ Q M t r v }.R.@.<.2.G.G.J.>.>.>.;.-.-.-.:.:.:.:.:.>.&.;.&.;.;.;.;.;.>.;.>.1.",
"2.2.2.K.L.K._.J.G.G.>.>.>.>.>.>.>.>.>.2.>.>.S.@.#.] T i 4 f.6.{.z.P.C.J.G.J.>.A.>.>.;.-.:.-.:.:.:.:.;.;.-.;.-.;.;.-.;.;.1.;.2.2.",
"2.2.G.H.J.K.J.J.G.>.>.>.>.>.>.G.G.>.G.>.2.2.=.@.{ Q M 9 s.d.f.m.k.z.T.D.F.F.S.A.>.=.-.-.-.:.:.:.:.:.:.:.-.;.;.>.;.;.&.;.1.3.3.1.",
"2.1.2.2.G.J.G.G.>.G.2.2.>.>.>.G.G.G.2.>.1.<.O.+.] B C s.a.s.d.k.z.l.j.z.].S.>.>.>.>.:.:.:.;.:.:.:.:.:.:.;.;.>.1.>.1.&.&.1.3.1.2.",
"1.1.>.G.G.G.G.A.G.2.2.2.>.2.>.2.>.2.>.G.=.=...` T 9 s.a.a.s.d.g.z.k.j.j.z.{ G.>.A.>.>.;.;.;.:.>.:.:.:.:.:.A.2.>.1.;.;.;.;.2.3.2.",
"1.>.>.>.A.G.G.G.2.G.2.G.2.G.>.2.G.G.G.<.<.o.) Y M a.s.a.a.s.c.: x.k.k.k.d.Q.=.A.>.>.>.:.:.-.:.:.>.:.A.:.G.>.>.>.>.;.&.&.>.2.1.2.",
"1.>.1.2.G.G.G.A.G.>.G.2.2.1.2.>.>.G.>.2.@...( P r a.g.K - * 3 3 4 t N C d.d.Y.>.A.A.=.-.:.-.:.:.:.>.G.A.;.>.>.A.>.>.;.;.;.2.1.>.",
"1.1.2.2.K.G.K.G.>.G.2.>.2.1.>.2.2.G.>.G.O...( s 5 x.r y r r t t t a N Y T g./.>.A.A.=.-.-.-.:.:.=.G.>.J.G.;.>.>.2.2.;.;.;.=.;.;.",
"1.1.2.2.2.A.A.A.>.>.>.G.2.>.>.1.>.G.2.<.O.) ( U N N d B N N N B s M Y T ( } P.*.>.>.:.:.-.-.-.:.>.G.K.J.A.A.;.1.G.>.-.&.&.;.&.&.",
"=.1.2.2.>.G.A.>.>.>.>.1.2.>.>.>.2.2.>.<.=...) ( E E ^ ] ] ] ` E ^ T E ( )  .,.=.>.>.>.:.-.-.;.>.A.J.J.K.G.A.>.;.>.2.;.&.&.;.&.-.",
"1.1.2.>.>.>.>.A.>.>.G.>.2.>.>.1.>.2.G.2.=.o...+.[ +.+.#.o.@.+.+.+.) ) |  .X.,.-.:.;.>.;.:.-.;.A.G.J.J.K.>.>.>.1.).>.1.&.&.&.&.&.",
"1.1.>.;.>.>.>.>.A.>.>.G.2.>.>.>.2.>.G.>.2.<.=.O.@.@.D.<.D.<.<.<.@.O... .X.X.;.;.;.>.;.;.;.;.;.>.G.G.G.K.;.1.>.1.1.&.1.&.&.&.$.&.",
";.1.1.;.;.;.;.;.>.G.G.>.G.>.>.>.2.G.G.G.A.=.=.=.<.2.J.H.G.G.G.S.=.=.=.*.,.-.-.-.>.>.;.>.;.;.=.G.G.2.2.G.=.;.;.;.1.1.&.&.&.%.$.$.",
"&.;.1.;.;.:.;.>.>.G.G.G.>.A.>.>.>.G.G.G.>.G.>.G.<.G.G.H.G.2.G.>.G.>.>.>.,.-.;.>.>.1.>.;.>.;.>.>.2.>.>.;.&.&.&.&.&.&.1.$.&.%.$.$.",
"1.1.;.-.;.:.;.;.2.>.>.G.A.>.>.;.A.G.G.>.A.G.G.A.G.G.G.G.G.G.G.G.G.G.2.>.;.;.>.2.G.2.>.:.>.:.>.>.2.>.>.;.;.;.1.&.&.&.&.&.&.$.$.$."
};
