/* XPM */
static char *_5bec2fba5794dc6d437930450a942d7Q9JP1BDsrc6cfJrx[] = {
/* columns rows colors chars-per-pixel */
"64 64 213 2 ",
"   c #1A3E74",
".  c #1B3F79",
"X  c #193463",
"o  c #1C4174",
"O  c #1C427B",
"+  c #274266",
"@  c #455D7F",
"#  c #1B4484",
"$  c #1E488C",
"%  c #1E4789",
"&  c #1E4C93",
"*  c #1E4E9A",
"=  c #1E529E",
"-  c #0A5D89",
";  c #214B8C",
":  c #26538D",
">  c #2E568C",
",  c #36588B",
"<  c #214F94",
"1  c #22529B",
"2  c #235194",
"3  c #0E608F",
"4  c #086798",
"5  c #1A6692",
"6  c #3F6089",
"7  c #3A659A",
"8  c #2D719E",
"9  c #2A6D98",
"0  c #1F53A4",
"q  c #2255A3",
"w  c #2659A5",
"e  c #2255A9",
"r  c #245BAD",
"t  c #295DAB",
"y  c #285CA5",
"u  c #255CB3",
"i  c #265EBB",
"p  c #006DA8",
"a  c #156FA3",
"s  c #0273AD",
"d  c #0D77AB",
"f  c #0175B3",
"g  c #0179B6",
"h  c #017DBC",
"j  c #187CB2",
"k  c #1977A7",
"l  c #2963A1",
"z  c #2B62AC",
"x  c #386AA5",
"c  c #277CAD",
"v  c #3C7AA6",
"b  c #347AA8",
"n  c #3B7CAA",
"m  c #3E75AB",
"M  c #2A62B4",
"N  c #2662BC",
"B  c #2B64BC",
"V  c #2E6ABF",
"C  c #3169BE",
"Z  c #297FB2",
"A  c #2879B1",
"S  c #3472BB",
"D  c #49678A",
"F  c #4A6788",
"G  c #467697",
"H  c #567E9C",
"J  c #416FAA",
"K  c #497EA6",
"L  c #457FA4",
"P  c #4A7DBE",
"I  c #275FC0",
"U  c #2964C3",
"Y  c #2C69C3",
"T  c #2765CB",
"R  c #2966CC",
"E  c #2C6BCC",
"W  c #2560C6",
"Q  c #306EC7",
"!  c #3271C9",
"~  c #3572C5",
"^  c #2C6DD3",
"/  c #2967D9",
"(  c #2C6EDB",
")  c #2F73D6",
"_  c #2C72DC",
"`  c #3274D3",
"'  c #3175DD",
"]  c #3479DC",
"[  c #3A7CD6",
"{  c #276DEB",
"}  c #2A6EE1",
"|  c #2D74E4",
" . c #2D75EC",
".. c #2E79EF",
"X. c #337BE4",
"o. c #337BEC",
"O. c #3478E4",
"+. c #296FF2",
"@. c #2A67FE",
"#. c #256EFE",
"$. c #2A6DFE",
"%. c #266FF5",
"&. c #2771F7",
"*. c #2B74F4",
"=. c #2E7BF4",
"-. c #2673FE",
";. c #2B75FE",
":. c #2778FF",
">. c #2D7BFE",
",. c #317CF4",
"<. c #3176FE",
"1. c #317DFD",
"2. c #347FFE",
"3. c #327DFE",
"4. c #397EFE",
"5. c #4078CB",
"6. c #0281BD",
"7. c #0A82BE",
"8. c #3B82B1",
"9. c #4982AD",
"0. c #5481A2",
"q. c #5B87AD",
"w. c #4D86B7",
"e. c #5689B4",
"r. c #628DB0",
"t. c #6C93B4",
"y. c #6189AC",
"u. c #0383C3",
"i. c #0A85C4",
"p. c #0589CA",
"a. c #0B8CCC",
"s. c #138AC6",
"d. c #128DCD",
"f. c #198FCC",
"g. c #178BC6",
"h. c #1B91CD",
"j. c #0F8ED0",
"k. c #148FD1",
"l. c #1591D2",
"z. c #1E93D3",
"x. c #2692CE",
"c. c #2294D2",
"v. c #2B95D4",
"b. c #2B99D8",
"n. c #3B9BDA",
"m. c #359AD4",
"M. c #318FC5",
"N. c #3780E7",
"B. c #3681ED",
"V. c #3A83EC",
"C. c #3C81E6",
"Z. c #2E81FE",
"A. c #3481F5",
"S. c #3A85F4",
"D. c #3C89F6",
"F. c #3282FE",
"G. c #3682FE",
"H. c #3686FD",
"J. c #3483FE",
"K. c #3986FE",
"L. c #3985FD",
"P. c #3688FD",
"I. c #3989FE",
"U. c #3C8AFD",
"Y. c #3F90FD",
"T. c #538ED2",
"R. c #439FDC",
"E. c #5D99D5",
"W. c #4E8FCF",
"Q. c #6794C8",
"!. c #7096C3",
"~. c #6B9EDD",
"^. c #6196D8",
"/. c #44A1DD",
"(. c #4BA2DD",
"). c #54A4DD",
"_. c #7FAEDA",
"`. c #4188E0",
"'. c #5493E0",
"]. c #418EFE",
"[. c #4183FE",
"{. c #4392FD",
"}. c #4894FD",
"|. c #4A99FE",
" X c #46A3E0",
".X c #56A9E4",
"XX c #5CABE4",
"oX c #59A5E1",
"OX c #62ADE5",
"+X c #6BADE4",
"@X c #69AAEA",
"#X c #6CB1E7",
"$X c #64B1EA",
"%X c #6DB3EA",
"&X c #64B1E7",
"*X c #74B5EB",
"=X c #79B7EB",
"-X c #77B9EB",
";X c #7BBAEB",
":X c #78B4E3",
">X c #73A6E7",
",X c #94BCDE",
"<X c #83BCEB",
"1X c #8ABFEC",
"2X c #86B9E3",
"3X c #8DC1ED",
"4X c #8CC0E7",
"5X c #98C5ED",
"6X c #96C4EA",
"7X c #8AC2F1",
"8X c #98C8F3",
"9X c #A2CBEF",
"0X c #A0CBF3",
/* pixels */
";.;.;.<.1.;.<.3.3.<.<.<.=.1.1.<.;.;.#.#.#.$.#.;.;.<.>.;.H.1.1.1.F.3.J.J.H.K.3.3.>.1.F.H.K.K.K.1.>.>.1.<.1.<.>.>.>.;.;.;.;.;.<.$.",
";.;.;.>.;.1.1.1.;.1.;.>.J.3.F.1.<.#.#.$.#.#.$.-.;.&.&.,.,.P.1.J.1.F.1.J.H.,.,.L.J.<.1.U.>.U.K.1.;.>.>.1.<.3.>.<.;.>.;.;.;.;.;.<.",
";.;.>.>.;.1.<.>.1.;.>.>.K.H.3.K.;.;.#.#.#.#.$.;.*.&.,.o.o.B.,.,.,.H.A.H.S.S.S.o.,.,.,.1.F.1.F.1.;.>.<.F.1.F.>.;.;.;.>.;.;.<.<.;.",
";.;.;.;.>.1.F.1.1.>.J.J.U.U.L.K.;.-.-.#.#.$.$.>.*. . .| | X.X.o.o.,.o.o.o.o.X.|  . .=.<.1.>.>.>.;.>.;.1.1.<.;.<.;.;.>.>.>.<.3.<.",
";.;.:.>.>.>.F.F.H.>.F.F.L.U.U.>.;.>.-.#.;.;.Z.=.,..._ ' ^ ` ) _ ] ] | X.] [ ) ) ( | =.*.3.>.1.>.>.;.;.>.>.1.;.;.;.1.;.;.1.1.<.<.",
"-.:.;.>.;.Z.Z.Z.H.F.H.H.U.{.P.>.>.;.-.;.>.>.Z.A.=.| _ ` Q V V ! E E E E Y Y U T ^ |  .,.1.1.>.>.;.;.;.;.>.>.;.;.;.<.3.1.3.<.<.<.",
";.>.;.;.>.>.Z.J.F.J.H.P.Y.{.P.F.>.;.-.;.>.<.P.J.'.d.' ! C z z z z z z 0 0 x l U E (  .=.>.1.1.>.;.-.;.>.;.;.<.>.<.1.<.1.F.1.>.;.",
"-.;.;.>.>.>.P.J.J.Z.F.P.P.P.P.1.;.;.-.;.>.1.F.Z.` k.f.E C z w 1 * * * * m l.8 N R |  .=.A.<.1.>.;.-.;.;.;.;.<.;.>.1.K.L.3.1.>.<.",
";.>.>.>.>.Z.Z.Z.Z.Z.F.F.P.U.J.Z.;.:.;.;.;.>.>.>.,./.k.j.x.Z 7 2 : n 9 h.a.p.7 N E | ..>.>.1.1.>.>.;.;.;.;.;.;.;.<.1.F.F.1.>.;.;.",
">.>.F.1.>.>.>.Z.J.Z.F.H.F.J.1.Z.;.;.;.:.>.>.>.Z.=.`.k.a.l.l.c.v.b.p.p.p.p.p.M E _  .=.=.1.1.>.>.>.>.;.;.;.;.;.;.1.>.>.1.>.>.;.;.",
">.F.H.1.>.>.>.>.F.F.1.1.J.>.F.;.-.;.;.;.;.>.;.;.=.>.w.k.l.l.c.l.a.p.p.p.p.l ~ ) X...Z.>.>.Z.>.Z.;.>.;.#.#.<.#.#.1.<.J.F.;.>.<.>.",
"F.3.F.F.>.>.>.>.Z.Z.1.>.>.Z.Z.;.;.-.;.;.>.>.>.Z.>.Y.U.`.c.z.l.z.j.j.p.p.z S ` X.B.=.>.J.Z.Z.F.>.>.;.-.#.#.#.#.#.3.3.H.1.<.;.>.<.",
"1.1.K.>.>.;.>.:.>.>.1.>.>.>.;.-.;.;.#.;.>.>.>.1.Z.J.{.Y.S.m.z.(.x.p.i.q M E ] V.A.J.1.J.>.>.>.>.;.-.-.-.#.#.#.#.,.U.3.L.,.<.;.<.",
">.>.>.;.>.;.:.>.>.>.>.>.1.F.>.;.#.;.#.;.>.<.1.3.Z.1.U.D.D.o.W.).s.j e e V ` X.A.L.H.1.1.F.>.>.:.:.-.#.#.#.#.#.#.L.].3.4.K.;.;.1.",
">.;.>.;.:.:.:.;.;.;.;.>.>.>.>.;.-.#.;.<.;.1.F.F.1.H.F.F.,.,.| #Xi.; e r Y ) o.D.P.P.1.1.>.>.;.;.:.-.#.-.#.#.-.;.3.4.S.U.4.$.<.;.",
":.;.;.-.:.;.;.;.>.>.=.J.<.<.;.-.$.$.;.;.>.F.F.1.>.1.Z.F.1...| OXu., e r Y ` V.S.H.1.J.>.1.;.>.;.:.-.-.#.-.-.=.;.;.4.2.4.2.;.>.<.",
"Z.Z.=.;.;.>.>.>.>.1.<.>.>.;.$.$.$.;.;.;.3.1.2.2.2.3.1.K.,.,.R XXu.m 0 0 N ^ X.A.F.K.F.3.Z.>.>.:.:.-.-.:.:.=.:.>.;.>.>.H.1.<.1.<.",
"1.F.1.>.>.>.>.F.1.>.F.1.;.;.$.;.;.$.;.<.<.J.3.2.2.2.H.A.,.o.~.OXu.G = 0 i ^ | A.H.F.1.F.1.>.>.>.:.:.:.:.>.Z.>.>.>.>.1.F.1.<.<.>.",
"J.L.1.>.>.J.F.1.1.1.<.;.<.$.$.$.$.&.<.<.<.1.2.2.H.U.U.P.S.o.2XOXu.w.& 0 u T | =.1.F.F.1.F.>.>.>.:.:.:.:.:.Z.Z.Z.>.Z.;.1.1.1.<.>.",
"P.1.1.>.>.>.>.>.1.>.>.;.;.$.;.;.;.<.<.;.>.1.H.<.3.F.F.P.A.X.=X).i.8.$ = u T | =.2.1.F.F.1.1.Z.>.:.:.:.Z.Z.Z.Z.Z.Z.>.Z.1.<.<.<.>.",
"H.U.>.>.>.>.>.>.;.>.>.;.;.>.<.;.<.1.1.<.<.J.1.H.J.1.P.A.o.| #X.Xp.8.# & 0 R | ..1.Z.F.1.1.>.>.:.:.Z.:.Z.Z.Z.Z.J.1.1.F.<.<.>.>.<.",
">.>.>.>.>.>.;.:.;.;.>.>.>.>.<.>.1.>.>.>.1.<.<.2.>.1.F.A.o.~.#X(.p.c O & w U _ A.,.F.1.F.H.F.>.;.>.:.:.Z.Z.Z.Z.J.F.F.3.<.1.<.<.<.",
"Z.>.>.Z.>.>.Z.Z.1.1.>.3.1.H.J.>.1.>.F.>.>.>.1.1.F.>.F.D.o.,X$X Xp.k O # q N ) o.,.J.F.H.J.J.Z.>.Z.Z.:.Z.Z.Z.Z.Z.F.1.3.4.3.3.1.F.",
"F.Z.F.Z.J.H.>.J.1.3.F.U.,.H.J.J.H.>.>.1.1.<.2.H.U.P.S.B.X.<XXXn.p.7.o # 1 M ) X.A.J.Z.J.J.J.J.:.:.:.Z.Z.Z.Z.:.Z.1.1.3.3.4.3.3.3.",
"1.H.P.F.P.H.P.K.F.U.].].{.2.1.U.1.J.=.>.1.F.F.U.K.U.P.B.O.;XXXn.p.g D # * M E | A.Z.Z.F.J.J.Z.>.:.:.:.Z.Z.>.F.1.1.1.<.3.K.F.K.3.",
"1.K.L.U.U.U.H.H.F.P.].].U.P.U.L.P.<.>.>.F.H.K.U.U.U.D.V.~.=XXX/.i.6.t.o $ z Y X.B.Z.F.Z.J.P.=.Z.:.:.:.Z.J.J.F.1.1.<.K.3.<.F.2.;.",
"K.4.L.{.].].P.F.H.U.U.|.U.H.L.].P.<.1.F.1.H.K.U.P.D.S.N.,X-X.XR.f.6.e.o ; w T ' ..A.P.P.J.{.>.>.:.>.Z.P.P.U.H.2.K.<.1.F.J.<.2.<.",
"3.L.U.U.U.Y.F.J.H.P.].U.U.U.J.P.F.F.>.F.H.H.H.K.P.P.A.N.<X*XXXR.s.6.8.o # 1 V ) ..D.J.D.A.J.Z.>.=.:.Z.Y.J.P.4.L.1.].<.H.1.L.>.<.",
"3.4.H.H.H.P.J.J.L.U.L.L.H.L.P.H.1.U.F.1.F.K.K.H.U.D.V.] ;X*X.X).x.h Z + # = B ) X.].U.Z.P.D.>.>.>.>.Z.Z.K.H.].U.S.<.4.3.H.3.3.;.",
"<.1.J.H.Z.H.H.H.P.L.U.L.P.L.L.K.H.F.F.F.H.P.F.H.P.U.V.~.=X*XXXR.c.u.Z F O = M ` X.D.D.J.P.>.Z.;.Z.>.J.U.2.L.3.4.].3.3.}.L.U.U.$.",
"1.F.F.J.P.P.H.U.U.L.K.U.H.H.F.H.K.U.J.H.F.P.H.P.].].C.6X*X%XXX(.x.u.j t.O < z E X.*.J.F.>.>.1.1.>.F.H.K.F.L.L.3.3.[.3.,.<.4.<.<.",
">.Z.F.J.H.U.U.U.L.].F.U.U.H.F.H.U.H.F.U.L.H.L.U.L.S.C.3X*X%X*XM.g.h d r.O : z ~ X. .=.;.F.>.1.1.F.H.F.{.K.L.4.S.L.L.4.<.4.<.<.4.",
"1.3.3.F.L.U.].U.].L.].L.D.H.K.F.F.H.F.U.H.P.U.U.].].X.<X%X%X3XW.g.f s q.. : y Y '  .;.3.F.<.>.H.H.3.F.U.U.2.L.<.3.].K.3.<.4.<.<.",
">.3.F.K.F.K.].L.L.U.U.U.].L.F.F.F.1.F.F.K.P.P.U.L.`.[ <X%X$X;X(.3 p s 9.  ; w C (  .+.<.>.>.J.F.2.K.3.F.F.K.K.L.S.L.1.L.<.<.<.<.",
"1.K.L.K.].L.U.U.L.U.L.U.].F.F.F.1.1.F.U.H.U.].U.S.o.E.;X%X$X*XXX5 p s K X # 1 i ^ | =.;.;.>.1.K.U.L.K.K.K.U.K.3.3.3.K.4.,.<.<.<.",
"<.3.3.2.K.U.L.U.L.].U.U.K.U.J.1.1.F.H.1.F.H.D.P.D.V.*X<X%X7X7XOX- f f n @ # 1 t R ( +.&.:.;.K.K.[.U.L.2.F.K.U.H.K.K.K.K.4.4.<.$.",
"1.1.F.1.F.K.].L.U.K.U.U.Y.P.>.J.F.H.H.F.F.J.U.U.D.V.Q.;X#X0X0X@X4 u.g n D . ; e R / { %.-.=.<.K.U.].U.].U.].U.H.H.K.].L.4.].4.$.",
"1.1.3.1.F.F.K.L.K.K.U.U.Y.J.>.>.1.U.{.3.F.Z.P.P.S.o.!.;X%X8X0XoX6.p.g n D . ; e I / { +.;.>.<.U.}.].].U.}.L.K.P.H.K.].}.].4.<.[.",
"1.1.1.1.F.F.J.J.Z.J.H.U.J.Z.H.>.F.H.U.F.J.P.P.U.D.E.!.*X#X1X6Xm.j.p.g b F . : q I / { +.-.-.;.3.U.].U.{.].[.,.K.H.K.].L.L.].4.%.",
"3.1.1.F.F.Z.J.J.J.J.Z.J.J.Z.>.>.3.F.F.F.J.Z.P.D.D.7X4X*X#X<X9XOXj.u.g b H 3 k e U ( { %.%.-.-.F.].].L.{.].U.L.F.U.U.S.4.3.<.4.$.",
"4.1.1.1.1.H.F.F.J.J.Z.Z.Z.Z.F.F.F.K.K.F.U.H.H.H.P.9X5X;X&X3X9X(.l.u.h b H a > u R } +.%.#.#.-.:.1.H.L.P.L.1.<.K.F.F.K.3.3.3.<.$.",
"F.<.1.>.1.3.F.K.J.Z.Z.Z.Z.Z.F.F.1.H.K.F.F.F.H.P.K.[ 8X;X$X6X9Xn.l.u.g b 0.G q i ^ | #.%.#.#.-.:.>.K.H.J.>.1.F.3.F.F.F.1.3.<.;.<.",
"1.<.<.1.<.1.<.H.F.Z.Z.:.Z.>.Z.F.F.F.3.H.1.1.1.F.K.A._.<X$X;X6Xn.j.u.f v H * e R _ ..&.%.#.-.-.<.;.1.>.>.>.J.3.3.3.1.1.1.1.<.<.3.",
";.>.>.<.>.>.>.>.Z.Z.Z.Z.>.>.>.>.1.1.3.3.F.F.1.1.F.<.=.1X#X%X2Xv.a.6.s K . 1 u ^ | *.;.-.-.-.;.>.>.;.;.>.<.1.3.3.3.4.F.1.1.1.[.4.",
">.>.<.>.>.>.;.>.>.Z.>.>.>.>.>.>.>.<.1.<.>.1.1.1.1.1.,.,X#X#X:Xz.p.6.d y.; 1 I ( o.;.-.-.#.-.-.>.;.:.>.>.1.1.1.3.4.3.F.3.3.4.3.4.",
";.>.<.<.<.>.;.;.>.>.>.Z.>.;.;.:.>.>.1.1.F.1.F.F.1.1.,.>X*X&XoXl.p.6.n y.< t Q ( o.,.;.;.-.-.-.;.;.>.>.;.>.>.3.3.3.3.4.F.3.3.4.3.",
"<.<.3.3.3.>.>.>.>.>.>.>.:.:.:.;.;.>.>.>.3.3.1.F.F.F.,.^ =XOX.Xj.u.f n , 1 u R | ,.F.<.;.$.-.-.;.>.;.>.=.1.1.<.<.3.3.1.<.3.3.4.4.",
"1.F.3.F.U.F.>.>.:.>.>.>.;.;.>.;.;.>.>.<.F.3.F.F.L.L.U.o.;XOXE.k.6.f v # q i (  .,.<.1.;.-.&.-.-.:.;.;.>.;.;.>.;.<.3.>.<.<.<.4.4.",
"F.3.4.].U.K.F.<.J.>.;.;.:.:.;.;.;.>.>.>.<.F.>.L.].U.}.S.<XOX).a.u.s 9.$ 0 W (  .>.F.>.-.-.-.-.:.:.>.>.>.;.#.;.;.;.;.<.;.;.<.<.>.",
"3.K.F.K.U.P.P.F.F.>.>.>.>.>.>.>.>.>.;.>.>.1.1.H.{.].].D.E.OXoXi.a.g , * i T |  .=.>.-.-.-.-.:.:.:.>.:.:.$.;.#.;.;.;.;.;.<.>.>.<.",
"K.3.3.U.Y.U.{.P.J.1.>.>.>.>.>.>.1.>.>.1.>.>.F.H.U.U.U.L.A.+X).d.u.k * 0 N ^ | =.>.=.;.:.-.-.:.:.:.:.;.>.;.;.;.;.;.;.;.;.<.;.3.3.",
"3.3.F.K.P.U.P.P.J.Z.>.1.>.Z.>.F.1.>.1.1.F.1.1.U.Y.U.U.P.,.^./.z.6.a w M Y [  .=.>.-.;.-.:.;.:.:.:.:.:.-.-.;.;.;.;.;.$.;.<.4.<.4.",
"<.<.<.J.J.P.F.F.>.F.1.<.>.>.1.F.F.F.3.F.3.1.F.K.U.U.U.U.J.~ :X).a.c z N E X.=.=.>.;.;.:.;.:.:.:.:.:.:.:.;.;.<.1.>.<.;.$.<.4.<.3.",
">.<.>.F.J.F.F.F.F.1.3.3.<.>.1.>.3.3.F.3.F.F.F.K.P.U.H.U.H.S.+X+Xd.9.E E _ | =.>.>.Z.>.>.:.:.:.;.:.:.:.:.:.Z.>.1.>.;.$.$.;.F.3.3.",
"<.>.;.1.Z.J.Z.F.1.F.F.K.1.1.>.1.1.F.3.1.F.F.F.K.P.P.P.J.H.H.+X2Xa.P ) _ | =.=.>.>.>.>.:.;.:.:.:.>.:.>.:.F.>.>.>.>.;.$.;.;.1.3.3.",
"<.>.<.1.P.J.J.Z.F.1.F.F.<.1.1.>.1.F.F.K.F.F.F.F.J.H.H.H.H.H.T.6X7.o.o.o...,.>.Z.Z.Z.>.-.-.-.:.:.:.>.P.Z.;.>.>.Z.>.>.;.;.<.1.<.<.",
"3.;.1.3.Y.J.U.Z.>.J.1.1.1.1.>.<.1.F.1.F.3.F.F.3.H.F.K.L.H.P.L.L.S.S.,.A.2.=.>.>.Z.Z.>.-.-.;.:.:.>.J.>.J.J.>.;.>.<.F.;.;.&.;.;.;.",
"<.3.<.F.>.F.Z.Z.>.>.>.1.<.>.>.1.>.F.F.F.F.3.F.3.H.U.L.L.P.P.P.P.P.P.L.H.J.>.>.Z.>.>.:.:.-.-.-.:.Z.F.U.U.Z.>.;.>.F.>.$.;.$.;.;.;.",
"<.<.1.1.1.J.Z.>.>.>.>.1.>.>.>.>.<.1.3.F.F.F.K.K.K.L.].L.L.L.K.P.P.H.A.H.>.>.;.>.Z.:.>.:.-.-.:.>.Z.P.U.P.F.F.>.=.1.3.;.$.#.;.$.$.",
"<.<.<.>.;.=.>.>.>.1.1.>.1.<.>.<.1.1.F.3.3.F.3.H.K.U.L.U.K.L.K.K.L.H.F.>.>.:.;.>.;.>.;.;.;.-.;.F.F.P.H.U.>.>.>.<.U.<.<.$.$.$.$.$.",
"<.;.<.>.>.;.>.>.>.>.1.1.1.>.>.>.>.F.F.F.1.F.H.J.H.K.U.K.K.K.F.K.H.J.Z.>.:.:.;.;.>.;.;.;.>.>.;.>.H.H.H.K.<.<.>.<.<.$.<.$.$.$.@.@.",
"<.>.<.;.;.;.;.Z.>.F.H.Z.F.<.>.>.1.1.F.F.F.F.>.F.F.K.H.H.K.K.F.F.F.Z.Z.>.:.:.;.;.1.>.>.>.>.;.;.1.1.F.<.F.;.;.;.;.<.<.$.$.$.$.#.@.",
";.<.<.;.;.;.;.>.Z.1.F.F.>.Z.>.>.>.H.H.F.>.F.F.F.F.H.F.K.F.3.F.F.F.F.>.>.;.-.;.Z.<.>.>.;.;.;.=.>.F.>.>.;.;.$.$.$.$.$.<.$.@.#.@.@.",
"$.;.$.;.;.:.;.;.>.1.1.Z.Z.>.>.>.F.F.H.>.F.F.>.F.F.F.H.F.K.F.F.F.F.1.Z.>.;.;.>.1.1.1.>.:.:.>.>.1.>.>.>.;.;.$.<.$.$.$.$.$.$.@.@.@."
};
