/* XPM */
static char *fba74ee2669140699c450d8c5fe1ea41PHyBdd2ml8tBXeXs[] = {
/* columns rows colors chars-per-pixel */
"64 64 223 2 ",
"   c #1A3E75",
".  c #1B3E78",
"X  c #1B3C6F",
"o  c #1C4075",
"O  c #1C427C",
"+  c #344D70",
"@  c #405A7D",
"#  c #1C4482",
"$  c #1C458B",
"%  c #1E4A8A",
"&  c #155F88",
"*  c #1E4B93",
"=  c #1B4A9B",
"-  c #194594",
";  c #214984",
":  c #254E89",
">  c #214E93",
",  c #204E9B",
"<  c #215193",
"1  c #23539C",
"2  c #2A589A",
"3  c #096191",
"4  c #176B99",
"5  c #3E6895",
"6  c #32709A",
"7  c #1B4BA1",
"8  c #1E51A6",
"9  c #1D54B7",
"0  c #204FA1",
"q  c #2455A4",
"w  c #2659A7",
"e  c #295BA5",
"r  c #2455AB",
"t  c #255AAB",
"y  c #295DAA",
"u  c #245BB5",
"i  c #255DBE",
"p  c #295EB5",
"a  c #076DA4",
"s  c #0272AD",
"d  c #0B76AE",
"f  c #1876AA",
"g  c #0176B3",
"h  c #027BB6",
"j  c #017DBC",
"k  c #147CB5",
"l  c #286DA4",
"z  c #2C78A8",
"x  c #337BAA",
"c  c #3A7DAA",
"v  c #347AA4",
"b  c #2B63B4",
"n  c #2B64BB",
"m  c #2E69BD",
"M  c #306ABE",
"N  c #247DB1",
"B  c #297CB0",
"V  c #396CAB",
"C  c #4B6684",
"Z  c #456A91",
"A  c #547E9E",
"S  c #4F7490",
"D  c #427EAA",
"F  c #507AA0",
"G  c #4070B8",
"H  c #1F5DCC",
"J  c #255EC5",
"K  c #027FC1",
"L  c #2764C3",
"P  c #2B65C1",
"I  c #2D6AC3",
"U  c #2A65CB",
"Y  c #2D6ACC",
"T  c #2665C9",
"R  c #306DCA",
"E  c #326DC5",
"W  c #3372CC",
"Q  c #3971C4",
"!  c #2966D2",
"~  c #2E6DD2",
"^  c #2C6EDD",
"/  c #2564D4",
"(  c #2E71D5",
")  c #2E72DB",
"_  c #3373D5",
"`  c #3174DC",
"'  c #3579DD",
"]  c #3979D5",
"[  c #2569E6",
"{  c #2D6DE1",
"}  c #2769E6",
"|  c #2C73E3",
" . c #2E74EC",
".. c #2C79EF",
"X. c #3175E4",
"o. c #347BE4",
"O. c #397CE3",
"+. c #3076EC",
"@. c #337BEC",
"#. c #387FE9",
"$. c #2A67FE",
"%. c #256DFE",
"&. c #2A6DFE",
"*. c #256DF5",
"=. c #2C76F4",
"-. c #2E7BF4",
";. c #2673FE",
":. c #2B75FE",
">. c #2778FF",
",. c #2D7BFE",
"<. c #2770F1",
"1. c #3076F5",
"2. c #327CF4",
"3. c #3176FE",
"4. c #317DFE",
"5. c #397EFD",
"6. c #387DF6",
"7. c #427ED6",
"8. c #0280BD",
"9. c #3784B3",
"0. c #4E81AC",
"q. c #5885A9",
"w. c #4B87B2",
"e. c #5F8DB1",
"r. c #6288AB",
"t. c #6A93B6",
"y. c #0383C4",
"u. c #0487C8",
"i. c #058ACA",
"p. c #0B8BCC",
"a. c #0C86C4",
"s. c #138DCC",
"d. c #108BC7",
"f. c #1A90CD",
"g. c #0D8DD0",
"h. c #138FD1",
"j. c #1A8FD2",
"k. c #1591D1",
"l. c #1B92D2",
"z. c #2394CE",
"x. c #2293D3",
"c. c #2B95D5",
"v. c #3B9AD9",
"b. c #2D92CB",
"n. c #3781EB",
"m. c #3B84EE",
"M. c #3C85E8",
"N. c #2F81FE",
"B. c #2F81FE",
"V. c #3581F4",
"C. c #3A84F4",
"Z. c #3C88F4",
"A. c #3282FD",
"S. c #3181FE",
"D. c #3281FF",
"F. c #3383FE",
"G. c #3181FD",
"H. c #3482FF",
"J. c #3682FE",
"K. c #3484FD",
"L. c #3687FD",
"P. c #3585FE",
"I. c #3685FE",
"U. c #3483FE",
"Y. c #3886FE",
"T. c #3986FD",
"R. c #3788FE",
"E. c #3688FE",
"W. c #3889FE",
"Q. c #3A89FF",
"!. c #3B8BFE",
"~. c #398AFE",
"^. c #3D89FE",
"/. c #3D8DFE",
"(. c #3B8AFE",
"). c #3E90FD",
"_. c #4B8FC0",
"`. c #5D8FCC",
"'. c #4894C2",
"]. c #598ED0",
"[. c #449FDC",
"{. c #4B98D3",
"}. c #6693C4",
"|. c #6899D8",
" X c #7299C4",
".X c #47A1DD",
"XX c #51A3DC",
"oX c #5AA8DD",
"OX c #61ABDE",
"+X c #4289E7",
"@X c #418EFD",
"#X c #428BF4",
"$X c #4191FE",
"%X c #4492FE",
"&X c #4799FC",
"*X c #5296EB",
"=X c #629CE5",
"-X c #49A4E1",
";X c #56A9E2",
":X c #5CABE4",
">X c #5FA7E1",
",X c #62ADE6",
"<X c #62AFE9",
"1X c #6AABE5",
"2X c #6BB1E6",
"3X c #6CB3EA",
"4X c #65B1E7",
"5X c #71B1E3",
"6X c #73B6EB",
"7X c #7AB7EB",
"8X c #76B8EC",
"9X c #7CB9EB",
"0X c #76B9F0",
"qX c #8AB1D2",
"wX c #84BDEC",
"eX c #89BEEB",
"rX c #86B9E5",
"tX c #8FC1EC",
"yX c #93C2EC",
"uX c #9CC9F2",
"iX c #96C7F2",
"pX c #89C6F2",
"aX c #A2CBF3",
/* pixels */
":.:.:.3.4.,.:.4.4.3.3.3.,.4.4.3.:.:.%.%.%.%.%.:.3.:.:.,.K.S.4.S.T.4.S.J.K.J.J.4.4.4.S.J.T.T.T.3.,.,.4.,.4.4.,.,.:.:.:.:.:.:.3.&.",
":.:.:.,.:.3.4.4.3.4.:.,.A.4.A.4.3.%.%.&.%.%.%.:.:.:.:.4.J.~.J.S.4.4.4.L.~.J.4.T.S.4.S.~.S.~.T.4.,.,.4.3.3.4.,.3.:.,.:.:.:.:.:.3.",
":.:.,.,.,.4.4.,.,.-.,.4.^.J.4.T.:.:.%.%.%.%.&.:.,.,.4.A.~.^.J.S.K.J.T.T.~.~./.J.S.S.4.S.J.4.S.,.:.,.,.4.4.4.:.3.:.:.,.:.:.3.3.:.",
":.:.:.:.,.3.S.4.4.,.S.S.^.~.T.^.:.;.%.%.&.&.:.,.,.,.4.A.K.K.R.K.K.K.K.K.T./.~.K.K.4.4.,.4.,.4.,.,.,.,.3.4.3.,.:.:.:.,.,.,.3.3.4.",
":.:.>.,.,.,.S.S.K.B.F.F.L./.~.,.>.,.:.%.;.-.B.B.4.J.L.K.T.%X~.~.^.~.K.~././.~.S.S.4.S.4.S.4.,.:.:.:.:.,.,.3.:.:.:.,.,.3.4.3.3.3.",
">.>.:.,.,.B.S.B.K.A.F.~.^.@X~.,.:.:.;.&.,.:.K.F.,.A.K.!./.R.!.).^.~.R.~.~.~.F.F.K.J.4.S.S.,.4.,.:.:.:.:.,.,.:.:.:.4.3.A.4.4.3.3.",
":.:.:.:.,.,.S.F.S.F.K.K./.%XL.S.,.>.:.:.,.3.K.K.L.A.R./././.Z.)./.R.R.F.K.K.F.K.J.S.S.4.4.4.4.,.:.>.:.:.:.:.3.,.3.3.3.4.J.4.,.:.",
">.:.:.:.:.,.R.F.F.B.F.L.L.~.L.,.,.>.;.:.:.4.K.N.A.B.%X~.@X).).!.~.K.R.K.R.K.K.R.J.S.4.S.S.,.4.,.:.>.:.:.:.:.3.,.,.4.4.~.4.4.,.3.",
":.,.,.,.:.,.B.N.B.F.S.S.~./.F.,.:.>.:.:.:.,.,.N.S.K.R.K./.$X!./.R.F.K.F.F.F.~.A.J.J.B.,.S.4.4.,.:.:.:.:.:.:.:.:.3.S.4.J.,.,.,.:.",
",.,.4.S.,.,.,.N.B.B.A.S.S.K.S.S.:.:.:.>.,.,.,.,.,.B.!.!.).!.R.F.K.S.S.S.R.!.~.~.K.S.S.S.B.4.,.,.B.:.:.:.:.:.:.:.4.,.4.4.,.,.:.:.",
",.A.K.S.B.,.,.N.S.S.4.A.B.S.S.:.:.>.:.:.,.-.:.,.,.B.).!./.K.~.S.A.,.S.S.T.~.%X~.F.S.S.,.4.,.,.N.:.,.:.;.%.3.%.%.,.4.K.S.:.,.3.:.",
"4.J.S.S.,.,.,.,.B.S.4.4.,.,.B.:.:.;.:.:.:.,.,.,.B.).%X!.!.T.K.,.V.,.B.L.R.&X%XK.Z.S.S.S.B.B.B.,.,.:.%.%.%.*.%.%.4.4.K.4.,.:.4.3.",
",.4.J.4.,.,.,.,.,.,.4.,.,.,.:.:.&.;.:.:.3.,.,.,.A.A.&X$X!.!.J.~.B.,.S.B././.~.@XK.F.S.4.4.,.N.,.,.;.%.%.%.%.%.;.6.^.4.5.2.3.:.3.",
",.,.,.:.:.:.>.:.,.,.,.,.A.4.,.:.:.%.%.:.,.,.4.4.B.,.~./.!.J.S.4.S.B.S.F.~./.~.^.~.~.4.S.S.,.,.>.>.>.;.%.%.%.%.*.^.@X4.5.T.&.:.4.",
",.>.:.>.>.>.>.:.:.:.,.,.,.,.,.:.:.%.:.:.:.4.S.S.4.T.S.J.J.S.S.F.S.4.S.K.R.~.!.).K.K.J.4.,.,.:.:.;.;.;.;.%.%.>.:.3.4.L.@XT.&.3.:.",
":.,.:.:.>.:.:.:.,.,.,.4.3.3.:.;.&.&.:.,.,.S.J.4.,.4.S.S.S.J.K.S.S.S.K.F.K.!./.^.T.J.S.4.4.:.,.:.>.;.;.%.;.>.:.:.3.4.4.6.4.:.3.4.",
"N.N.-.:.>.,.,.,.,.,.4.3.,.:.&.%.&.:.:.3.3.J.4.J.4.6.4.T.S.K.F.K.R.F.K.K.S.K.~.~.K.K.J.S.,.,.,.>.>.;.;.;.>.:.,.,.:.,.,.K.J.3.3.4.",
",.S.4.,.,.,.4.4.4.,.4.4.:.:.$.3.:.&.:.,.,.4.4.4.J.4.K.T.J.T.K.K.R.R.F.B.S.J.K.K.J.S.4.S.4.,.B.,.>.>.>.>.,.B.N.,.,.,.4.F.,.4.3.,.",
"K.L.4.4.,.B.A.4.4.4.3.:.:.&.:.&.&.<.3.3.:.4.4.4.S.~./.~.T.K.~.R.F.K.K.S.S.S.S.S.S.J.J.S.S.4.,.,.N.>.>.>.>.B.N.N.,.,.,.4.3.4.3.,.",
"L.4.4.,.,.,.,.,.4.,.,.:.:.&.:.:.:.3.3.:.3.4.J.4.S.S.K.T.~.~.K./.K.K.K.S.S.J.F.B.S.S.S.F.,.4.,.,.>.>.>.N.N.N.N.B.B.,.B.,.4.3.3.,.",
"K.!.N.,.,.,.,.,.,.,.,.:.:.,.3.:.,.4.,.3.4.4.4.J.4.S.K.K.R.R.R.R.~.K.L.F.K.F.F.F.S.S.S.S.4.,.,.,.>.N.>.B.B.B.B.V.,.S.J.3.3.,.3.,.",
",.,.,.:.,.,.,.:.:.:.,.,.,.,.3.,.4.3.,.4.4.4.4.4.4.4.T.L.~.!.!.R.E.~.R.~.F.K.K.R.J.S.S.S.K.A.,.:.>.>.>.N.N.B.B.B.F.4.4.4.3.4.3.3.",
"B.,.,.A.,.,.B.B.4.,.,.4.4.J.K.4.A.,.A.,.4.4.4.4.4.2.J./.~.K.K.!.~.~.R.R.R.K.R.~.F.S.S.K.A.S.B.,.N.,.N.N.N.B.B.B.S.,.3.4.4.4.,.J.",
"B.S.B.B.K.F.4.S.4.4.A.^.J.A.4.J.S.3.,.4.,.3.4.4.L.L.L.L.~.~.).!.T.~.~.R.R.!.!.R.K.K.4.K.A.K.K.>.>.,.>.N.>.B.>.B.2.4.3.6.4.4.4.4.",
"S.T.K.K.K.L.K.~.K.~./.@X$X2.S.~.4.4.,.,.A.6.V.V.C.C.C.L.Z.!.F./.T.~.K.K.Z.~.K.R.~.F.B.F.F.F.K.,.,.>.>.N.,.,. .*X .1.1.2.4.T.4.4.",
"4.T.T.^.^.~.T.J.J.L.$X@X/.L.~.L.A.2.,.=.A.qXpX3X#.#.n.m.Z.Z.Z.#XZ.L.C.L.K.^.T.~.L.B.K.B.A.L.,.,.>.>.>.-.' oXs.j.]  .2.1.1.4.4.3.",
"T.4.^.@X@X/.K.V.S./.^.&X~.A.L.#X-. .+.`.iXiXeX}. X}.OX|.Q O.+Xm.m.n.Z.V.C.C.J.L.B.L.K.L.S.%X,.,.>.>.,.] z.k.h.~ ^ {  .@.2.,.T.3.",
"4.T.^.T././.K.K.K.Z.^.^.!.Z.2.X.|.qXtXwX9X9X9X7X7X9XwXwX9XwXeXiX|.W O.n...@.C.n.V.L.V.K.V.F.B.,.>.=.-.l.p.g.V U U _ ^ +.2.J.,.3.",
"5.J.~.J.K.K.A.A.K.^.V.V.7.rX9X7X6X3X3X3X<X2X2X2X3X3X3X3X3X6X6X6X8X8XwXyX|.R o.X.n.C.C.V.V.V.:.:.=.=.v.h.j.j.P n P ! { X.2.4.4.:.",
"4.3.J.K.F.K.L.L.C.' =X5X:X,X,X,X:X<X5X7XeXtXeXeXyXuXiX3X<X3X3X3X3X6X6X8X6X7X9XtX|.] o.| @. .-.=.-.{.x.k.j.x.r u n U { #X6.^.@X:.",
"4.S.S.S.K.K.+X5X1X5X.X;XOXXXXXXX:X5XrXeXuXaXaXyXuXaXiX7X0XwX7X:X:X;X;X;X;X:X:X4X4X2X6XtX].n | { W x.k.x.c.c q r p W { +.6.3.3.3.",
",.S.S.K.K.Z.oXyX1XOXl.f.i.i.s.f.h.l.c.v.v.[.,Xv..X,X,X,X;X[.'.-X.XoX.X.X.Xv.v..X-XXXoX:X:X:X:X3X:X-Xc.h.b.: , e P ~ { 1.3.3.3.3.",
"4.S.4.J.K.C.9.a.s.p.h y.p.u.y.y.y.i.p.p.k.k.s.d.y.a 3 & & k f.c.z.f.d.s.i.i.i.i.i.i.i.i.u.K K u.a.z.a.g.f.5 < q J ] @.1.3.3.3.3.",
",.4.4.4.L.C.C.G Z z f z g s g g h y.8.8.y.y.u.u.i.y.h s s s j y.y.y.y.8.8.h k k f B c w.F V Z > V u.g.i.i.v.* t P ` @.6.6.3.3.3.",
"4.T.^.T.^.V.#.' W n w 1 : A v c c f s s h h 8.g h h g g s a d f N 9.9.w.t.S @   . # $ - - 7 0 q q f u.u.u.f.* r L ^ @.6.6.4.3.3.",
"3.4.T.A.4.C.@.O._ I b y 1 < % 5 r.r.q.9.v v v 9.c c D D 0.w.r.t.C +   o . . O $ $ - - = 7 9 r p p w d.i.u.i.< w L ^ @.6.4.5.3.$.",
"4.4.J.4.A.C.C.@.` ( Y m b b 8 , * % # Z q.q.q.@ C Z C +       O . ; ; : < > 1 0 q 8 9 9 9 i J L M b y i.p.p.'.r L _ #.C.2.@X5.$.",
"4.4.4.4.,.A.6.C.n.| ' ] W L u 9 t q 2 < Z 4 3 o   O O O ; % * > = 2 2 l t p b i J J J H / ! ! ) ] W M e i.i.i._.n ~ O.#X@X5.3.@X",
"4.4.S.4.4.J.A.-.V.@.@.o.| ^ ) / T i n u 8 * z 4 : : < 1 w y t t p n M E R R Y ~ ^ ^ / [ [ [ [  .M.O._ W m 2 6 l n ~ O.#.6.^.4.$.",
"4.4.4.S.S.4.S.B.B.-.B.B.-... .| | ) ~ T n b t w w t b n m I R Y ~ ~ ) ) ' o.X.X.@.2.*.*.*.%.<.-.C.#XX.] W m p i Y _ ' 2.4.3.5.&.",
"5.4.4.4.4.J.S.J.F.B.B.B.B.V.2.=.V.| o.| ( Y L I m I I ( ) ` ' | X.n.#.n.@.C.C.V.-.-.:.;.%.%.;.=.4.V.V.o._ ! T U ~ ) X.2.1.4.3.&.",
"J.3.4.4.S.4.S.K.F.B.B.B.,.,.B.B.V.A.2.@.@.| ) ( ) ) ' o.@.n.n.2.C.2.C.L.L.K.A.S.S.,.:.%.;.%.;.>.-.K.2.+. .| ^ ^ ^ | @.=.3.3.3.:.",
"4.3.3.,.3.4.4.J.S.B.B.N.N.N.N.B.N.B.A.2.2. . . .o.@.@.2.V.C.K.L.T.~.Z.!.K.K.S.S.A.,.;.;.;.%.;.,.:.,.=.,.:.+. . . .+.=.2.,.3.3.4.",
":.,.,.3.,.,.,.,.,.B.B.,.,.,.,.,.N.,.,.4.,.4.,.-.2.2.A.V.A.F.K.R.L.~.K.K.K.T.K.J.J.,.,.;.%.;.:.,.,.,.:.,.,.3.1.1.2.3.4.,.4.4.^.J.",
",.3.3.,.,.,.:.,.N.N.,.B.,.,.,.,.,.3.4.4.,.,.A.2.4.4.S.4.4.J.~.~.~.J.~.J.T.J.4.T.J.,.:.%.%.;.;.:.:.,.,.:.,.4.3.2.4.6.J.4.4.4.4.5.",
":.,.,.,.3.:.:.,.>.,.,.,.>.,.:.:.,.,.3.4.S.A.S.4.4.4.4.S.4.K.J.K.T.K.K.K.T.^.^.4.T.4.:.:.;.;.;.:.:.:.:.,.,.4.A.4.5.4.4.4.4.4.5.5.",
"3.,.3.4.4.,.,.,.,.,.,.,.,.>.>.:.,.,.:.,.4.4.S.S.K.J.J.J.!.F./.K.K.K.~.J.K.S.S.A.T.J.3.:.:.;.;.:.:.:.,.,.4.4.3.:.3.4.4.4.4.3.5.5.",
"3.J.4.J.^.S.,.,.,.,.>.,.:.:.:.:.:.,.,.,.S.4.S.J.K.R.T.T./.~.K.T.K.S.J.S.T.S.J.4.3.4.S.>.%.;.;.>.>.>.,.,.:.:.,.,.3.3.,.3.3.3.5.5.",
"J.J.J.^.T.K.S.,.,.S.:.:.,.:.:.,.:.,.,.,.,.4.4.L.@X^.&X^.~./.K.K.J.J.J.S.4.4.4.4.,.4.3.;.;.;.>.>.>.,.,.,.:.&.&.:.:.:.3.:.:.,.3.3.",
"4.J.J.T.!.Z.K.T.S.,.,.,.>.,.,.,.,.:.,.,.,.4.S.T.$X@X@X#X~.~.T.T.~.S.A.S.S.S.K.4.4.,.>.>.;.;.>.>.>.,.:.>.%.:.;.:.:.:.:.:.3.,.,.3.",
"J.S.4.^.)./.%XL.K.S.,.,.,.,.,.,.4.4.,.,.,.,.K.K.~././.~.^.K.K.~.K.T.T.~.T.K.,.S.,.-.>.;.;.>.>.>.>.>.,.:.:.:.:.:.:.:.:.:.3.:.4.4.",
"4.3.J.~.~.!.L.F.K.4.,.,.,.4.,.B.4.,.S.4.4.4.S.T././.~.^.K.T.T.K.~.).).K./.$XB.B.,.:.:.;.:.;.>.>.>.>.>.>.:.:.:.:.:.:.&.:.3.5.3.5.",
"3.,.3.A.A.R.K.L.,.4.,.,.,.,.,.4.4.S.J.4.4.4.S.~./.~./.~.K.K.T.T.~.~.T.~.L.L.A.B.,.>.:.>.:.>.>.>.>.>.>.>.:.,.,.4.3.3.:.&.:.4.4.3.",
",.3.,.S.F.F.S.F.S.4.J.4.,.4.4.4.4.S.S.S.S.S.J.K.~.R.~.!.R.~.K.T.~.T.T.K.B.A.4.,.B.,.,.:.:.>.>.:.>.>.>.>.>.,.,.3.,.:.&.:.:.T.5.4.",
"3.:.,.4.A.F.S.S.S.S.J.J.J.4.,.,.4.S.J.S.J.S.J.K.K.T.T.K.K.K.T.~.K.~.T.K.S.B.A.,.A.,.B.>.>.;.>.:.>.,.>.>.S.,.,.,.,.:.&.&.,.4.4.4.",
"3.,.3.4.K.F.S.S.S.4.J.S.3.4.,.4.,.S.J.S.S.J.S.S.J.K.K.K.T.~.~.K.~.T.T.K.K.F.,.S.,.,.>.>.>.>.>.>.,.>.K.F.,.,.,.B.,.,.:.:.:.3.3.3.",
"3.,.4.A./.S.Z.B.4.A.S.,.4.4.,.4.4.S.J.J.S.S.J.4.S.J.T.T.K.T.~.~.~.~.K.T.S.S.S.,.B.B.,.>.;.>.>.>.:.K.,.S.B.:.,.,.4.4.:.:.:.:.:.:.",
"3.3.3.J.4.F.B.B.,.,.,.S.3.,.,.3.,.S.4.S.4.4.J.4.K.K.T.^.~.K.T.~.T.~.~.K.K.,.,.,.,.,.>.>.;.;.>.>.B.K.~.~.B.,.-.3.S.,.&.:.&.:.&.:.",
":.3.4.3.,.F.B.B.,.,.,.3.,.,.,.,.4.4.J.4.J.S.J.T.T.T./.^.^.T.T.~.~.^.J.S.,.B.:.,.,.,.,.:.;.;.>.:.B.R.~.Z.F.S.,.:.4.4.:.&.&.:.&.;.",
"3.3.3.,.,.,.,.,.,.,.4.4.3.4.,.3.,.4.4.S.S.S.S.K.T.^.T.^.J.T.~.K.T.K.J.B.,.>.:.,.,.,.>.>.:.;.:.4.S.~.~.~.,.,.,.3.#X:.3.&.&.&.&.&.",
"3.3.3.,.,.:.,.,.N.,.4.4.4.,.,.,.4.,.S.K.4.4.J.K.K.T.^.T.T.T.K.K.K.F.B.,.>.>.:.:.,.,.:.:.:.:.:.,.~.K.T.~.:.3.,.3.3.3.3.&.&.&.$.$.",
"3.,.,.:.:.:.:.,.,.S.K.S.S.4.,.,.4.S.J.S.S.S.B.S.K.T.K.K.K.J.J.J.S.S.B.,.>.>.>.:.3.,.:.,.,.:.-.4.,.4.,.J.:.:.:.:.&.&.3.$.&.%.%.$.",
":.3.3.:.:.:.:.,.4.S.S.S.B.B.,.,.,.R.K.S.S.S.S.S.K.K.K.T.K.J.J.S.S.S.B.,.:.:.:.,.,.4.,.:.:.,.,.4.4.4.,.:.:.&.:.&.:.$.&.&.$.&.$.$.",
"&.:.&.:.:.>.:.,.,.,.S.S.,.,.,.:.S.S.F.4.S.S.S.S.S.S.K.J.S.J.S.J.4.S.,.,.:.:.,.4.4.4.,.:.>.>.,.,.,.,.,.:.:.&.3.&.&.&.3.&.&.$.$.$."
};
